<svg xmlns="http://www.w3.org/2000/svg" version="1.1" xmlns:xlink="http://www.w3.org/1999/xlink" xmlns:svgjs="http://svgjs.dev/svgjs" width="2000" height="2250" viewBox="0 0 2000 2250"><g transform="matrix(1,0,0,1,3.410605131648481e-13,0)"><svg viewBox="0 0 320 360" data-background-color="#ffffff" preserveAspectRatio="xMidYMid meet" height="2250" width="2000" xmlns="http://www.w3.org/2000/svg" xmlns:xlink="http://www.w3.org/1999/xlink"><defs></defs><g id="tight-bounds" transform="matrix(1,0,0,1,0,0)"><svg viewBox="0 0 320 360" height="360" width="320"><g><svg></svg></g><g><svg viewBox="0 0 320 360" height="360" width="320"><g><path d="M20.961 227.22l3.726 4.658-1.863-6.056c-0.466-2.795-3.726 0.466-1.863 1.398M25.153 224.425c1.397 2.329 2.795 4.658 2.795 6.987 0 3.261 2.795 4.658 5.123 5.589-3.261-3.726-5.124-13.974-7.918-12.576M204.017 26.929c7.918 0 15.371-0.932 23.756 0.931 20.495 5.124 37.729 15.371 49.374 29.811l32.606 52.169c1.397 13.042 4.192 27.482 3.726 43.319 3.261 0 2.795-4.658 6.521-5.59-3.726 9.316-5.59 20.961-6.521 34.469-2.329-7.453 0-18.632 0.466-24.687-3.261 5.124-5.124 1.397-5.124-0.932 0.466-3.726-1.397-3.261-2.795-4.658-5.124-4.658-8.384-9.782-12.11-17.7 2.329-6.055 2.795-14.905-4.658-19.563-2.329-1.397-5.124-3.726-6.521-7.453-1.863-5.124-5.124-11.179-4.193-19.097 0.466-2.329-6.987 5.124-11.179 1.863-18.166-12.576-36.332-27.016-58.224-39.127-11.645 0-20.029-4.192-24.221-9.316-3.726-4.658-0.932-10.713 4.658-11.179 3.261 0 6.987-0.932 9.782 0.932 0.466-1.863 2.329-4.192 4.657-4.192M157.904 16.215l0.932 0.466c4.658 0.932 6.987 7.453 12.11 5.124 0 3.261 0.466 6.521-0.466 8.85-1.397 3.726-5.59 3.726-8.85 3.726-31.208-1.863-49.374 11.179-68.471 22.358-5.124 3.261-10.713 5.59-14.906 9.782-20.029 18.632-41.921 35.866-47.045 70.335l-4.192 38.195c-0.466 4.192-5.124 8.384-4.192 13.508l3.26 22.824c-3.261-3.261-5.124 0.932-4.192 2.795 0.466 1.397 2.329 6.055 5.124 1.863 3.726 6.987 7.453 20.495 12.576 26.55 15.837 18.632 36.332 35.4 53.101 52.169 4.192-0.932 7.453-0.932 8.384-3.727 1.397 2.795-1.397 5.59-3.726 6.056 7.453 4.658 15.837 8.85 27.016 9.781 14.44 0.932 27.948 3.261 40.524 6.522 6.521-1.863 13.042-2.795 20.029-3.261 2.329 0 3.726-3.726 6.521-4.658l0.466-4.658c2.795 4.192 2.329-1.397 0.466-4.192 3.261 2.795 4.192 5.124 5.589 6.987 0-1.397 3.726-6.521 3.727-0.466l0.931-6.055c1.397-0.932 1.863 5.124 3.261 0.931 1.397-4.192 4.192-0.932 6.987-2.329-0.932 1.863-0.466 5.59 2.794 3.261l3.727-3.261c2.329 5.59 6.055 3.261 7.918 2.329 20.495-13.042 40.99-28.413 60.553-43.784l-0.466 6.055 2.329-7.453c2.329 2.329 4.192 0.466 5.124-0.931 2.795-4.658 6.521-9.316 12.577-13.508-7.453 20.029-16.303 35.866-27.482 48.908l-4.658 5.59c0 3.261-0.932 7.453-4.658 7.918-1.863 0.466-5.59-0.932-8.384 1.863-1.397 1.863 3.261 5.59-0.466 2.795-3.261-2.329-6.521 0-10.248 0.932-2.795 0.932 1.863 3.726 2.795 5.589 0.932 1.863 1.863 3.726 1.398 6.056l-5.124-5.59c-6.055 3.261-9.782 9.316-14.906 13.974-2.329 1.863-1.397 5.124-1.397 7.918-3.261 0-6.987-0.932-8.85 0.932-1.397 1.863-0.932 4.658-0.932 7.453-4.658-0.466-5.124-7.453-9.315-6.056-4.192 0.932-8.85 1.397-12.577 3.727 2.795 5.59-4.658 2.329-3.726 3.26-6.987-4.192-13.042-7.453-20.495-4.658-15.837-5.124-35.4-2.795-49.84-0.931 0-2.329 0.466-4.658-0.466-5.124-0.932 2.329-3.726 1.397-3.26 1.397-8.85-6.055-17.7-9.782-27.016-14.905-8.384 0.932-16.303-3.261-18.632-5.59-6.521-6.055-13.974-2.795-20.029-4.192-13.042-3.261-17.7-16.769-19.098-26.084-0.932-4.658-4.658-6.521-6.055-6.056-6.055-19.563-15.371-37.263-22.824-55.429-1.863-4.658-1.397-9.316-1.397-14.44 2.329 0.932 4.658 0.466 4.192-2.794-2.329-15.371-7.918-27.016-13.974-38.195 3.261-15.837 3.726-34.469 11.179-48.443 6.521-12.576 18.632-19.098 27.016-29.811 2.795-3.726 2.795-8.85 5.59-12.11 9.316-9.316 18.632-19.098 28.879-27.482 4.658-3.726 10.247 0 17.234-1.397 2.329-8.384 11.645-15.837 20.495-13.508 3.726 0.932 11.179-8.85 13.508-9.782 3.726-1.397 1.863 3.726 1.863 6.987 8.85-6.987 20.961-10.713 32.14-14.906" fill="#e65728" data-fill-palette-color="tertiary"></path></g><g transform="matrix(1,0,0,1,64,93.66606525620386)"><svg viewBox="0 0 192 172.66786948759227" height="172.66786948759227" width="192"><g><svg viewBox="0 0 192 172.66786948759227" height="172.66786948759227" width="192"><g><svg viewBox="0 0 192 172.66786948759227" height="172.66786948759227" width="192"><g transform="matrix(1,0,0,1,0,53.11581021571456)"><svg viewBox="0 0 192 119.55205927187771" height="119.55205927187771" width="192"><g><svg viewBox="0 0 192 119.55205927187771" height="119.55205927187771" width="192"><g><svg viewBox="0 0 192 98.82099194573972" height="98.82099194573972" width="192"><g transform="matrix(1,0,0,1,0,0)"><svg width="192" viewBox="118.36 -36.040000000000006 230.37 115.58" height="98.82099194573972" data-palette-color="#e65728"><svg></svg><svg></svg><svg></svg><g class="undefined-text-0" data-fill-palette-color="primary" id="text-0"><path d="M144.63-35.55h9.57l9.14 25.78 9.08-25.78h9.62v35.55h-7.35v-9.72l0.73-16.77-9.59 26.49h-5.03l-9.57-26.46 0.73 16.74v9.72h-7.33zM192.66-35.55l7.34 16.02 7.4-16.02h8.01l-11.67 22.66v12.89h-7.45v-12.89l-11.67-22.66zM236.7-9.33v0c0-1.38-0.49-2.44-1.47-3.18-0.973-0.74-2.73-1.523-5.27-2.35-2.54-0.82-4.55-1.63-6.03-2.43v0c-4.033-2.18-6.05-5.117-6.05-8.81v0c0-1.92 0.54-3.633 1.62-5.14 1.08-1.507 2.633-2.683 4.66-3.53 2.027-0.847 4.303-1.27 6.83-1.27v0c2.533 0 4.793 0.46 6.78 1.38 1.987 0.92 3.53 2.22 4.63 3.9 1.1 1.673 1.65 3.577 1.65 5.71v0h-7.33c0-1.627-0.51-2.893-1.53-3.8-1.027-0.9-2.47-1.35-4.33-1.35v0c-1.787 0-3.177 0.38-4.17 1.14-0.993 0.753-1.49 1.75-1.49 2.99v0c0 1.153 0.583 2.12 1.75 2.9 1.16 0.78 2.873 1.513 5.14 2.2v0c4.167 1.253 7.2 2.807 9.1 4.66 1.907 1.853 2.86 4.163 2.86 6.93v0c0 3.08-1.163 5.493-3.49 7.24-2.327 1.753-5.46 2.63-9.4 2.63v0c-2.733 0-5.223-0.5-7.47-1.5-2.247-1-3.96-2.373-5.14-4.12-1.18-1.74-1.77-3.757-1.77-6.05v0h7.35c0 3.92 2.343 5.88 7.03 5.88v0c1.74 0 3.097-0.353 4.07-1.06 0.98-0.707 1.47-1.697 1.47-2.97zM275.76-35.55v5.94h-10.89v29.61h-7.32v-29.61h-10.74v-5.94zM287.72-35.55v35.55h-7.32v-35.55zM315.09-11.84h7.33c-0.28 3.827-1.693 6.837-4.24 9.03-2.547 2.2-5.903 3.3-10.07 3.3v0c-4.56 0-8.143-1.533-10.75-4.6-2.613-3.073-3.92-7.287-3.92-12.64v0-2.17c0-3.42 0.6-6.43 1.8-9.03 1.207-2.607 2.93-4.607 5.17-6 2.233-1.393 4.833-2.09 7.8-2.09v0c4.1 0 7.403 1.1 9.91 3.3 2.507 2.2 3.957 5.283 4.35 9.25v0h-7.33c-0.18-2.293-0.817-3.957-1.91-4.99-1.1-1.033-2.773-1.55-5.02-1.55v0c-2.44 0-4.267 0.877-5.48 2.63-1.213 1.747-1.837 4.46-1.87 8.14v0 2.68c0 3.84 0.583 6.65 1.75 8.43 1.16 1.773 2.993 2.66 5.5 2.66v0c2.26 0 3.95-0.517 5.07-1.55 1.113-1.033 1.75-2.633 1.91-4.8z" data-fill-palette-color="primary" fill="#e65728" opacity="1"></path><path d="M118.36 3.97h9.57l9.14 25.78 9.08-25.78h9.62v35.55h-7.35v-9.72l0.73-16.77-9.59 26.49h-5.03l-9.57-26.46 0.73 16.74v9.72h-7.33zM185.14 39.52l-2.47-7.32h-12.84l-2.44 7.32h-7.79l13.23-35.55h6.79l13.3 35.55zM176.23 12.96l-4.42 13.3h8.88zM214.68 30.19v0c0-1.38-0.49-2.44-1.47-3.18-0.973-0.74-2.73-1.523-5.27-2.35-2.54-0.82-4.55-1.63-6.03-2.43v0c-4.04-2.18-6.06-5.117-6.06-8.81v0c0-1.92 0.543-3.633 1.63-5.14 1.08-1.507 2.633-2.683 4.66-3.53 2.027-0.847 4.3-1.27 6.82-1.27v0c2.54 0 4.803 0.46 6.79 1.38 1.987 0.92 3.53 2.22 4.63 3.9 1.1 1.673 1.65 3.577 1.65 5.71v0h-7.33c0-1.627-0.513-2.893-1.54-3.8-1.02-0.9-2.46-1.35-4.32-1.35v0c-1.787 0-3.177 0.38-4.17 1.14-0.993 0.753-1.49 1.75-1.49 2.99v0c0 1.153 0.58 2.12 1.74 2.9 1.167 0.78 2.88 1.513 5.14 2.2v0c4.167 1.253 7.203 2.807 9.11 4.66 1.907 1.853 2.86 4.163 2.86 6.93v0c0 3.08-1.167 5.493-3.5 7.24-2.327 1.753-5.457 2.63-9.39 2.63v0c-2.74 0-5.233-0.5-7.48-1.5-2.24-1-3.95-2.373-5.13-4.12-1.18-1.74-1.77-3.757-1.77-6.05v0h7.34c0 3.92 2.347 5.88 7.04 5.88v0c1.74 0 3.097-0.353 4.07-1.06 0.98-0.707 1.47-1.697 1.47-2.97zM245.41 30.19v0c0-1.38-0.487-2.44-1.46-3.18-0.98-0.74-2.737-1.523-5.27-2.35-2.54-0.82-4.55-1.63-6.03-2.43v0c-4.04-2.18-6.06-5.117-6.06-8.81v0c0-1.92 0.54-3.633 1.62-5.14 1.087-1.507 2.643-2.683 4.67-3.53 2.027-0.847 4.3-1.27 6.82-1.27v0c2.54 0 4.803 0.46 6.79 1.38 1.987 0.92 3.53 2.22 4.63 3.9 1.093 1.673 1.64 3.577 1.64 5.71v0h-7.32c0-1.627-0.513-2.893-1.54-3.8-1.027-0.9-2.467-1.35-4.32-1.35v0c-1.793 0-3.187 0.38-4.18 1.14-0.987 0.753-1.48 1.75-1.48 2.99v0c0 1.153 0.58 2.12 1.74 2.9 1.167 0.78 2.88 1.513 5.14 2.2v0c4.167 1.253 7.203 2.807 9.11 4.66 1.9 1.853 2.85 4.163 2.85 6.93v0c0 3.08-1.163 5.493-3.49 7.24-2.327 1.753-5.46 2.63-9.4 2.63v0c-2.733 0-5.223-0.5-7.47-1.5-2.247-1-3.96-2.373-5.14-4.12-1.18-1.74-1.77-3.757-1.77-6.05v0h7.35c0 3.92 2.343 5.88 7.03 5.88v0c1.74 0 3.1-0.353 4.08-1.06 0.973-0.707 1.46-1.697 1.46-2.97zM280.25 39.52l-2.46-7.32h-12.84l-2.45 7.32h-7.78l13.23-35.55h6.79l13.3 35.55zM271.34 12.96l-4.42 13.3h8.89zM318.97 20.84v14.19c-1.313 1.58-3.177 2.803-5.59 3.67-2.407 0.873-5.073 1.31-8 1.31v0c-3.08 0-5.78-0.673-8.1-2.02-2.32-1.34-4.11-3.287-5.37-5.84-1.26-2.56-1.907-5.563-1.94-9.01v0-2.42c0-3.547 0.597-6.62 1.79-9.22 1.2-2.593 2.927-4.577 5.18-5.95 2.253-1.38 4.893-2.07 7.92-2.07v0c4.22 0 7.517 1.007 9.89 3.02 2.38 2.013 3.787 4.94 4.22 8.78v0h-7.12c-0.327-2.033-1.05-3.523-2.17-4.47-1.113-0.947-2.647-1.42-4.6-1.42v0c-2.487 0-4.383 0.937-5.69 2.81-1.3 1.873-1.957 4.657-1.97 8.35v0 2.27c0 3.727 0.707 6.543 2.12 8.45 1.413 1.9 3.49 2.85 6.23 2.85v0c2.747 0 4.707-0.583 5.88-1.75v0-6.13h-6.67v-5.4zM346.29 18.38v5.73h-14.06v9.53h16.5v5.88h-23.82v-35.55h23.78v5.94h-16.46v8.47z" data-fill-palette-color="primary" fill="#e65728" opacity="1"></path><path d="M145.24 43.5v29.67h15.55v5.88h-22.88v-35.55zM192.63 60.5v1.58c0 3.5-0.62 6.57-1.86 9.21-1.24 2.633-3.01 4.667-5.31 6.1-2.3 1.433-4.94 2.15-7.92 2.15v0c-2.947 0-5.577-0.71-7.89-2.13-2.307-1.413-4.097-3.433-5.37-6.06-1.267-2.633-1.91-5.657-1.93-9.07v0-1.76c0-3.5 0.63-6.58 1.89-9.24 1.267-2.66 3.05-4.703 5.35-6.13 2.307-1.427 4.94-2.14 7.9-2.14 2.96 0 5.593 0.713 7.9 2.14 2.3 1.427 4.08 3.47 5.34 6.13 1.267 2.66 1.9 5.733 1.9 9.22zM185.2 62.2v-1.73c0-3.727-0.667-6.56-2-8.5-1.333-1.933-3.237-2.9-5.71-2.9v0c-2.46 0-4.357 0.957-5.69 2.87-1.333 1.913-2.01 4.717-2.03 8.41v0 1.73c0 3.633 0.67 6.45 2.01 8.45 1.333 2 3.253 3 5.76 3v0c2.453 0 4.34-0.963 5.66-2.89 1.32-1.927 1.987-4.74 2-8.44zM226.85 43.5v35.55h-7.32l-14.26-23.39v23.39h-7.32v-35.55h7.32l14.28 23.44v-23.44zM244.26 79.05h-11.01v-35.55h10.94c3.127 0 5.92 0.703 8.38 2.11 2.467 1.413 4.393 3.417 5.78 6.01 1.38 2.593 2.07 5.543 2.07 8.85v0 1.64c0 3.3-0.677 6.237-2.03 8.81-1.36 2.573-3.277 4.567-5.75 5.98-2.48 1.42-5.273 2.137-8.38 2.15zM244.19 49.44h-3.62v23.73h3.55c2.86 0 5.047-0.937 6.56-2.81 1.513-1.873 2.287-4.55 2.32-8.03v0-1.88c0-3.613-0.747-6.353-2.24-8.22-1.5-1.86-3.69-2.79-6.57-2.79zM294.95 60.5v1.58c0 3.5-0.62 6.57-1.86 9.21-1.24 2.633-3.01 4.667-5.31 6.1-2.307 1.433-4.947 2.15-7.92 2.15v0c-2.947 0-5.577-0.71-7.89-2.13-2.313-1.413-4.103-3.433-5.37-6.06-1.267-2.633-1.91-5.657-1.93-9.07v0-1.76c0-3.5 0.63-6.58 1.89-9.24 1.267-2.66 3.05-4.703 5.35-6.13 2.307-1.427 4.94-2.14 7.9-2.14 2.96 0 5.593 0.713 7.9 2.14 2.3 1.427 4.08 3.47 5.34 6.13 1.267 2.66 1.9 5.733 1.9 9.22zM287.52 62.2v-1.73c0-3.727-0.667-6.56-2-8.5-1.333-1.933-3.237-2.9-5.71-2.9v0c-2.46 0-4.357 0.957-5.69 2.87-1.333 1.913-2.01 4.717-2.03 8.41v0 1.73c0 3.633 0.67 6.45 2.01 8.45 1.333 2 3.253 3 5.76 3v0c2.453 0 4.34-0.963 5.66-2.89 1.32-1.927 1.987-4.74 2-8.44zM329.17 43.5v35.55h-7.32l-14.26-23.39v23.39h-7.32v-35.55h7.32l14.28 23.44v-23.44z" data-fill-palette-color="primary" fill="#e65728" opacity="1"></path></g></svg></g></svg></g><g transform="matrix(1,0,0,1,0,103.2629209800763)"><svg viewBox="0 0 192 16.289138291801407" height="16.289138291801407" width="192"><g transform="matrix(1,0,0,1,0,0)"><svg width="192" viewBox="3.85 -35.9 525.65 44.599999999999994" height="16.289138291801407" data-palette-color="#e65728"><path d="M28.3-33.7L28.3 0 24.25 0 24.25-15.25 7.9-15.25 7.9 0 3.85 0 3.85-33.7 7.9-33.7 7.9-18.9 24.25-18.9 24.25-33.7 28.3-33.7ZM54.3-5L54.3-1.3Q51.35 0.25 47.1 0.25L47.1 0.25Q41.35 0.25 37.82-3.28 34.3-6.8 34.3-12.6L34.3-12.6Q34.3-18.65 37.45-22.15 40.6-25.65 45.55-25.65L45.55-25.65Q50.3-25.65 53.1-22.6 55.9-19.55 55.9-13.95L55.9-13.95Q55.9-12.35 55.65-11L55.65-11 38.35-11Q38.8-7.25 41.2-5.25 43.6-3.25 47.5-3.25L47.5-3.25Q51.75-3.25 54.3-5L54.3-5ZM45.55-22.2L45.55-22.2Q42.7-22.2 40.7-20.15 38.7-18.1 38.35-14.3L38.35-14.3 51.95-14.3 51.95-15.3Q51.95-18.45 50.25-20.33 48.55-22.2 45.55-22.2ZM69.65-3.05L69.65-3.05Q72.34-3.05 73.95-4.58 75.55-6.1 75.55-8.45L75.55-8.45 75.55-11.7 71.15-11.7Q67.95-11.7 66.34-10.45 64.75-9.2 64.75-7.3 64.75-5.4 66-4.23 67.25-3.05 69.65-3.05ZM75.59 0L75.59-3Q73.65 0.25 68.5 0.25L68.5 0.25Q64.95 0.25 62.77-1.85 60.6-3.95 60.6-7.15L60.6-7.15Q60.6-10.8 63.37-12.83 66.15-14.85 70.95-14.85L70.95-14.85 75.55-14.85 75.55-16.15Q75.55-19.15 74.2-20.68 72.84-22.2 69.65-22.2L69.65-22.2Q65.59-22.2 62.45-20.05L62.45-20.05 62.45-24Q65.3-25.75 69.95-25.75L69.95-25.75Q79.5-25.75 79.5-16.05L79.5-16.05 79.5 0 75.59 0ZM90.64-35.35L90.64 0 86.69 0 86.69-35.35 90.64-35.35ZM129.59-25.35L120.44-0.65Q118.49 4.5 115.81 6.6 113.14 8.7 109.69 8.7L109.69 8.7Q108.39 8.7 107.59 8.45L107.59 8.45 107.59 4.9Q108.34 5.1 109.29 5.1L109.29 5.1Q114.34 5.1 116.44-0.65L116.44-0.65 106.19-25.35 110.64-25.35 113.94-17 118.39-5.5Q118.79-6.8 122.39-17L122.39-17 125.34-25.35 129.59-25.35ZM156.38-12.6L156.38-12.6Q156.38-6.95 153.19-3.25 149.99 0.45 144.38 0.45L144.38 0.45Q138.94 0.45 135.76-3.23 132.59-6.9 132.59-12.5L132.59-12.5Q132.59-18.15 135.86-21.93 139.13-25.7 144.38-25.7L144.38-25.7Q150.13-25.7 153.26-22 156.38-18.3 156.38-12.6ZM136.69-12.55L136.69-12.55Q136.69-8.6 138.78-5.83 140.88-3.05 144.38-3.05L144.38-3.05Q148.19-3.05 150.24-5.78 152.28-8.5 152.28-12.55L152.28-12.55Q152.28-16.75 150.34-19.48 148.38-22.2 144.38-22.2L144.38-22.2Q140.78-22.2 138.74-19.4 136.69-16.6 136.69-12.55ZM181.88-25.35L181.88 0 177.93 0 177.93-4.4Q175.93 0.3 169.98 0.3L169.98 0.3Q166.23 0.3 164.06-1.93 161.88-4.15 161.88-7.9L161.88-7.9 161.88-25.35 165.83-25.35 165.83-8.9Q165.83-6.15 167.23-4.7 168.63-3.25 171.03-3.25L171.03-3.25Q174.18-3.25 176.06-5.45 177.93-7.65 177.93-11.4L177.93-11.4 177.93-25.35 181.88-25.35ZM193.08-13.85L193.08 0 189.13 0 189.18-25.35 193.08-25.35 193.08-20.9Q195.08-25.6 199.98-25.6L199.98-25.6Q200.88-25.6 201.38-25.5L201.38-25.5 201.38-21.6Q200.33-21.95 199.23-21.95L199.23-21.95Q196.58-21.95 194.83-19.5 193.08-17.05 193.08-13.85L193.08-13.85ZM220.88-3.75L220.88 0 216.93 0 216.93-35.35 220.88-35.35 220.88-21.55Q223.63-25.75 228.58-25.75L228.58-25.75Q233.38-25.75 236.43-22.08 239.48-18.4 239.48-12.45L239.48-12.45Q239.48-7.1 236.6-3.35 233.73 0.4 228.68 0.4L228.68 0.4Q223.58 0.4 220.88-3.75L220.88-3.75ZM220.88-12.85L220.88-12.85Q220.88-7.8 223.05-5.5 225.23-3.2 228.33-3.2L228.33-3.2Q231.38-3.2 233.38-5.75 235.38-8.3 235.38-12.4L235.38-12.4Q235.38-17.1 233.3-19.63 231.23-22.15 228.08-22.15L228.08-22.15Q225.38-22.15 223.13-19.9 220.88-17.65 220.88-12.85ZM267.57-12.6L267.57-12.6Q267.57-6.95 264.37-3.25 261.17 0.45 255.57 0.45L255.57 0.45Q250.12 0.45 246.95-3.23 243.77-6.9 243.77-12.5L243.77-12.5Q243.77-18.15 247.05-21.93 250.32-25.7 255.57-25.7L255.57-25.7Q261.32-25.7 264.45-22 267.57-18.3 267.57-12.6ZM247.87-12.55L247.87-12.55Q247.87-8.6 249.97-5.83 252.07-3.05 255.57-3.05L255.57-3.05Q259.37-3.05 261.42-5.78 263.47-8.5 263.47-12.55L263.47-12.55Q263.47-16.75 261.52-19.48 259.57-22.2 255.57-22.2L255.57-22.2Q251.97-22.2 249.92-19.4 247.87-16.6 247.87-12.55ZM275.97-12.4L275.97-12.4Q275.97-8.3 277.97-5.75 279.97-3.2 283.02-3.2L283.02-3.2Q286.12-3.2 288.3-5.5 290.47-7.8 290.47-12.85L290.47-12.85Q290.47-17.65 288.22-19.9 285.97-22.15 283.27-22.15L283.27-22.15Q280.12-22.15 278.05-19.63 275.97-17.1 275.97-12.4ZM294.42-35.35L294.42 0 290.47 0 290.47-3.75Q287.77 0.4 282.67 0.4L282.67 0.4Q277.62 0.4 274.75-3.35 271.87-7.1 271.87-12.45L271.87-12.45Q271.87-18.4 274.92-22.08 277.97-25.75 282.77-25.75L282.77-25.75Q287.72-25.75 290.47-21.5L290.47-21.5 290.47-35.35 294.42-35.35ZM321.87-25.35L312.72-0.65Q310.77 4.5 308.09 6.6 305.42 8.7 301.97 8.7L301.97 8.7Q300.67 8.7 299.87 8.45L299.87 8.45 299.87 4.9Q300.62 5.1 301.57 5.1L301.57 5.1Q306.62 5.1 308.72-0.65L308.72-0.65 298.47-25.35 302.92-25.35 306.22-17 310.67-5.5Q311.07-6.8 314.67-17L314.67-17 317.62-25.35 321.87-25.35ZM345.41-3.05L345.41-3.05Q348.11-3.05 349.71-4.58 351.31-6.1 351.31-8.45L351.31-8.45 351.31-11.7 346.91-11.7Q343.71-11.7 342.11-10.45 340.51-9.2 340.51-7.3 340.51-5.4 341.76-4.23 343.01-3.05 345.41-3.05ZM351.36 0L351.36-3Q349.41 0.25 344.26 0.25L344.26 0.25Q340.71 0.25 338.54-1.85 336.36-3.95 336.36-7.15L336.36-7.15Q336.36-10.8 339.14-12.83 341.91-14.85 346.71-14.85L346.71-14.85 351.31-14.85 351.31-16.15Q351.31-19.15 349.96-20.68 348.61-22.2 345.41-22.2L345.41-22.2Q341.36-22.2 338.21-20.05L338.21-20.05 338.21-24Q341.06-25.75 345.71-25.75L345.71-25.75Q355.26-25.75 355.26-16.05L355.26-16.05 355.26 0 351.36 0ZM382.26-17.45L382.26 0 378.31 0 378.31-16.4Q378.31-19.2 376.89-20.68 375.46-22.15 373.16-22.15L373.16-22.15Q370.31-22.15 368.24-19.95 366.16-17.75 366.16-13.85L366.16-13.85 366.16 0 362.26 0 362.26-25.35 366.16-25.35 366.16-20.95Q368.41-25.7 374.16-25.7L374.16-25.7Q377.86-25.7 380.06-23.45 382.26-21.2 382.26-17.45L382.26-17.45ZM391.86-12.4L391.86-12.4Q391.86-8.3 393.86-5.75 395.86-3.2 398.91-3.2L398.91-3.2Q402.01-3.2 404.18-5.5 406.36-7.8 406.36-12.85L406.36-12.85Q406.36-17.65 404.11-19.9 401.86-22.15 399.16-22.15L399.16-22.15Q396.01-22.15 393.93-19.63 391.86-17.1 391.86-12.4ZM410.31-35.35L410.31 0 406.36 0 406.36-3.75Q403.66 0.4 398.56 0.4L398.56 0.4Q393.51 0.4 390.63-3.35 387.76-7.1 387.76-12.45L387.76-12.45Q387.76-18.4 390.81-22.08 393.86-25.75 398.66-25.75L398.66-25.75Q403.61-25.75 406.36-21.5L406.36-21.5 406.36-35.35 410.31-35.35ZM462.8-17.4L462.8 0 458.85 0 458.85-16.4Q458.85-22.15 454-22.15L454-22.15Q451.6-22.15 449.7-19.98 447.8-17.8 447.8-13.85L447.8-13.85 447.8 0 443.85 0 443.85-16.4Q443.85-22.15 439-22.15L439-22.15Q436.6-22.15 434.7-19.98 432.8-17.8 432.8-13.85L432.8-13.85 432.8 0 428.9 0 428.9-25.35 432.8-25.35 432.8-21.25Q434.9-25.7 439.95-25.7L439.95-25.7Q445.8-25.7 447.35-20.75L447.35-20.75Q448.45-23.15 450.43-24.43 452.4-25.7 454.85-25.7L454.85-25.7Q458.8-25.7 460.8-23.45 462.8-21.2 462.8-17.4L462.8-17.4ZM473.95-25.35L473.95 0 470 0 470-25.35 473.95-25.35ZM473.8-35.15Q474.55-34.4 474.55-33.3 474.55-32.2 473.8-31.48 473.05-30.75 471.95-30.75 470.85-30.75 470.13-31.48 469.4-32.2 469.4-33.3 469.4-34.4 470.13-35.15 470.85-35.9 471.95-35.9 473.05-35.9 473.8-35.15ZM501.45-17.45L501.45 0 497.5 0 497.5-16.4Q497.5-19.2 496.07-20.68 494.65-22.15 492.35-22.15L492.35-22.15Q489.5-22.15 487.42-19.95 485.35-17.75 485.35-13.85L485.35-13.85 485.35 0 481.45 0 481.45-25.35 485.35-25.35 485.35-20.95Q487.6-25.7 493.35-25.7L493.35-25.7Q497.05-25.7 499.25-23.45 501.45-21.2 501.45-17.45L501.45-17.45ZM511.05-12.4L511.05-12.4Q511.05-8.3 513.05-5.75 515.05-3.2 518.1-3.2L518.1-3.2Q521.2-3.2 523.37-5.5 525.55-7.8 525.55-12.85L525.55-12.85Q525.55-17.65 523.3-19.9 521.05-22.15 518.35-22.15L518.35-22.15Q515.2-22.15 513.12-19.63 511.05-17.1 511.05-12.4ZM529.5-35.35L529.5 0 525.55 0 525.55-3.75Q522.85 0.4 517.75 0.4L517.75 0.4Q512.7 0.4 509.82-3.35 506.95-7.1 506.95-12.45L506.95-12.45Q506.95-18.4 510-22.08 513.05-25.75 517.85-25.75L517.85-25.75Q522.8-25.75 525.55-21.5L525.55-21.5 525.55-35.35 529.5-35.35Z" opacity="1" transform="matrix(1,0,0,1,0,0)" fill="#e65728" class="undefined-text-1" data-fill-palette-color="secondary" id="text-1"></path></svg></g></svg></g></svg></g></svg></g><g transform="matrix(1,0,0,1,66.336,0)"><svg viewBox="0 0 59.327999999999996 48.67388118137798" height="48.67388118137798" width="59.327999999999996"><g><svg xmlns="http://www.w3.org/2000/svg" xmlns:xlink="http://www.w3.org/1999/xlink" version="1.1" x="0" y="0" viewBox="4.91677491996892 13.011000000000001 90.16722508003109 73.97499999999997" style="enable-background:new 0 0 100 100;" xml:space="preserve" height="48.67388118137798" width="59.327999999999996" class="icon-icon-0" data-fill-palette-color="accent" id="icon-0"><g fill="#e65728" data-fill-palette-color="accent"><path d="M59.002 31.666c5.144 0 9.328-4.185 9.328-9.328 0-5.143-4.185-9.327-9.328-9.327-5.143 0-9.327 4.185-9.327 9.327C49.675 27.481 53.859 31.666 59.002 31.666zM59.002 15.304c3.88 0 7.036 3.155 7.036 7.034 0 3.88-3.156 7.035-7.036 7.035-3.879 0-7.035-3.155-7.035-7.035C51.967 18.459 55.123 15.304 59.002 15.304z" fill="#e65728" data-fill-palette-color="accent"></path><path d="M15.379 71.808c5.144 0 9.328-4.185 9.328-9.328s-4.185-9.327-9.328-9.327-9.328 4.184-9.328 9.327S10.235 71.808 15.379 71.808zM15.379 55.444c3.88 0 7.035 3.156 7.035 7.035s-3.155 7.036-7.035 7.036c-3.879 0-7.035-3.157-7.035-7.036S11.5 55.444 15.379 55.444z" fill="#e65728" data-fill-palette-color="accent"></path><path d="M40.418 59.354c0.606-0.184 0.948-0.824 0.765-1.43-0.396-1.308 0.205-2.701 1.429-3.313l9.361-4.68c0.179-0.089 0.33-0.224 0.441-0.39l6.972-10.458c0.064-0.097 0.14-0.195 0.226-0.292 0.042-0.048 0.08-0.1 0.113-0.153 0.741-1.199 1.889-2.101 3.23-2.537 3.134-1.021 6.514 0.699 7.533 3.83l7.163 22.16c0.157 0.485 0.606 0.794 1.091 0.794 0.116 0 0.235-0.019 0.353-0.056 0.603-0.195 0.933-0.841 0.738-1.443l-7.164-22.162c-1.412-4.336-6.087-6.715-10.423-5.304-1.828 0.596-3.395 1.813-4.421 3.433-0.128 0.15-0.245 0.306-0.349 0.461l-6.801 10.203-9.09 4.544c-2.226 1.113-3.318 3.648-2.598 6.028C39.172 59.194 39.812 59.537 40.418 59.354z" fill="#e65728" data-fill-palette-color="accent"></path><path d="M60.22 49.097c-0.436-0.061-0.866 0.135-1.109 0.5l-2.616 3.925c-0.27 0.405-0.643 0.733-1.078 0.951l-7.093 3.547c-0.566 0.283-0.796 0.972-0.513 1.538s0.972 0.796 1.538 0.513l7.092-3.547c0.792-0.396 1.47-0.993 1.962-1.73l1.304-1.957 2.562 7.871c0.157 0.484 0.606 0.792 1.09 0.792 0.117 0 0.237-0.019 0.354-0.057 0.603-0.196 0.932-0.843 0.735-1.444l-3.293-10.12C61.018 49.46 60.655 49.156 60.22 49.097z" fill="#e65728" data-fill-palette-color="accent"></path><path d="M93.938 80.174H35.762c-0.633 0-1.146 0.513-1.146 1.146 0 0.633 0.514 1.146 1.146 1.146h58.176c0.634 0 1.146-0.513 1.146-1.146C95.084 80.687 94.571 80.174 93.938 80.174z" fill="#e65728" data-fill-palette-color="accent"></path><path d="M89.136 76.344h0.03c0.028-0.001 0.057-0.002 0.085-0.004 0.062-0.003 0.123-0.009 0.186-0.014 0.013-0.001 0.025-0.002 0.038-0.004 0.004 0 0.009-0.001 0.014-0.001l0 0c0.07-0.007 0.141-0.016 0.205-0.025 0.023-0.003 0.047-0.007 0.07-0.011 0.061-0.01 0.12-0.02 0.18-0.031 0.012-0.002 0.023-0.005 0.035-0.007 0.004-0.001 0.007-0.002 0.011-0.002 0.052-0.011 0.104-0.022 0.155-0.035l0.031-0.007c0.008-0.002 0.016-0.004 0.023-0.006 0.024-0.006 0.049-0.012 0.055-0.014 0.053-0.015 0.105-0.029 0.158-0.045 0.029-0.008 0.059-0.018 0.092-0.027l0.122-0.041c0.015-0.005 0.026-0.009 0.041-0.015 0.026-0.009 0.053-0.018 0.062-0.021 0.025-0.009 0.051-0.02 0.076-0.029l0.019-0.007c0.016-0.006 0.032-0.013 0.048-0.019l0.187-0.081c0.006-0.002 0.013-0.005 0.019-0.008l0.1-0.047c0.008-0.003 0.016-0.007 0.022-0.011 0.032-0.015 0.063-0.031 0.093-0.048 0.041-0.021 0.08-0.04 0.11-0.057 0.027-0.015 0.054-0.03 0.093-0.053 0.004-0.002 0.024-0.014 0.028-0.017l0.086-0.05c0.031-0.019 0.063-0.038 0.097-0.061 0.045-0.028 0.091-0.059 0.123-0.081 0.021-0.014 0.041-0.028 0.076-0.054 0.006-0.004 0.012-0.009 0.019-0.013l0.098-0.071c0.006-0.004 0.013-0.009 0.019-0.013 0.031-0.024 0.063-0.05 0.105-0.084l0.057-0.045c0.037-0.03 0.074-0.063 0.111-0.095l0.008-0.008c0.028-0.023 0.056-0.047 0.095-0.083 0.036-0.034 0.072-0.068 0.099-0.095 0.023-0.021 0.046-0.044 0.068-0.066 0.038-0.038 0.073-0.076 0.109-0.115 0.018-0.018 0.032-0.033 0.04-0.042 0.048-0.051 0.093-0.104 0.138-0.158 0.001-0.001 0.002-0.002 0.003-0.003 0.008-0.009 0.016-0.018 0.022-0.027 0.044-0.052 0.086-0.105 0.127-0.16 0.013-0.017 0.025-0.033 0.038-0.051 0.034-0.046 0.067-0.093 0.101-0.141 0.011-0.015 0.021-0.031 0.032-0.047 0.037-0.054 0.073-0.111 0.108-0.169l0.02-0.03c0.03-0.048 0.059-0.099 0.095-0.164 0.012-0.021 0.023-0.04 0.034-0.061 0.026-0.049 0.052-0.099 0.073-0.142l0.04-0.08c0.012-0.025 0.023-0.051 0.035-0.077l0.013-0.027c0.007-0.014 0.013-0.027 0.019-0.041l0.01-0.022c0.01-0.022 0.02-0.046 0.029-0.068 0.011-0.026 0.021-0.055 0.037-0.093 0.014-0.035 0.027-0.071 0.042-0.108l0.013-0.034c0.009-0.025 0.018-0.052 0.029-0.086 0.018-0.051 0.034-0.103 0.05-0.154 0.006-0.019 0.011-0.035 0.013-0.044 0.003-0.009 0.005-0.017 0.008-0.025 0.018-0.062 0.035-0.124 0.049-0.182 0.005-0.021 0.011-0.044 0.016-0.066 0.015-0.06 0.027-0.118 0.039-0.18 0.006-0.024 0.01-0.051 0.015-0.076 0.011-0.059 0.02-0.116 0.028-0.175 0.004-0.024 0.007-0.049 0.01-0.075 0.008-0.055 0.014-0.111 0.02-0.167 0.004-0.033 0.007-0.067 0.009-0.104 0.001-0.011 0.002-0.021 0.003-0.032l0.009-0.137c0.002-0.044 0.003-0.089 0.003-0.135 0.001-0.029 0.002-0.059 0.002-0.088 0-0.013-0.001-0.027-0.001-0.042 0-0.058-0.002-0.114-0.005-0.172 0-0.004 0-0.008 0-0.011l-0.002-0.04c-0.003-0.07-0.009-0.14-0.015-0.209-0.001-0.005-0.001-0.01-0.002-0.016-0.001-0.017-0.003-0.034-0.005-0.052-0.006-0.058-0.014-0.116-0.021-0.168l-0.006-0.048c-0.002-0.015-0.004-0.03-0.007-0.045-0.009-0.052-0.018-0.103-0.027-0.154-0.004-0.022-0.008-0.043-0.012-0.063-0.002-0.012-0.005-0.022-0.007-0.034-0.011-0.048-0.021-0.094-0.033-0.141-0.007-0.031-0.015-0.063-0.023-0.098-0.012-0.044-0.024-0.088-0.041-0.144l-0.024-0.082c-0.009-0.031-0.02-0.063-0.03-0.095l-0.011-0.03c-0.016-0.046-0.031-0.092-0.044-0.125-0.013-0.036-0.027-0.071-0.042-0.106l-0.004-0.011c-0.017-0.042-0.033-0.084-0.051-0.125-0.008-0.019-0.016-0.037-0.024-0.055-0.001-0.002-0.01-0.021-0.011-0.023L93.6 69.138c-0.02-0.044-0.04-0.089-0.057-0.12l-0.015-0.029c-0.005-0.011-0.011-0.021-0.016-0.031l-0.014-0.026c-0.022-0.044-0.045-0.088-0.073-0.139l-0.022-0.039c-0.029-0.053-0.059-0.104-0.089-0.154-0.004-0.005-0.007-0.011-0.011-0.017l-0.016-0.024c-0.004-0.006-0.008-0.013-0.012-0.019-0.03-0.048-0.061-0.094-0.092-0.14-0.015-0.022-0.03-0.046-0.048-0.07-0.031-0.045-0.063-0.089-0.099-0.136-0.018-0.023-0.035-0.047-0.052-0.065-0.023-0.031-0.047-0.062-0.071-0.092l-0.014-0.017c-0.011-0.014-0.022-0.027-0.033-0.04l-0.077-0.088c-0.021-0.026-0.044-0.051-0.066-0.075-0.032-0.035-0.065-0.071-0.107-0.113-0.022-0.024-0.046-0.048-0.063-0.063-0.037-0.037-0.075-0.074-0.117-0.113-0.016-0.015-0.032-0.03-0.061-0.057-0.041-0.036-0.083-0.072-0.126-0.108-0.018-0.015-0.034-0.029-0.051-0.043-0.048-0.04-0.097-0.078-0.146-0.115-0.004-0.003-0.008-0.007-0.01-0.008-0.014-0.012-0.027-0.022-0.042-0.033-0.053-0.038-0.106-0.076-0.154-0.108-0.01-0.007-0.021-0.016-0.032-0.022-0.047-0.032-0.095-0.063-0.143-0.092l-0.025-0.017c-0.005-0.004-0.023-0.016-0.029-0.019-0.008-0.005-0.016-0.01-0.023-0.015-0.052-0.03-0.103-0.06-0.161-0.093-0.018-0.01-0.034-0.02-0.051-0.027-0.048-0.026-0.097-0.052-0.146-0.076-0.009-0.004-0.027-0.014-0.036-0.018l-0.033-0.016c-0.049-0.024-0.102-0.048-0.156-0.071-0.028-0.014-0.056-0.025-0.094-0.041l-0.196-0.077c-0.017-0.006-0.033-0.012-0.05-0.018l-0.207-0.068c-0.011-0.004-0.022-0.008-0.034-0.011l-0.047-0.013c-0.012-0.004-0.023-0.007-0.036-0.011l-0.131-0.035c-0.01-0.003-0.019-0.005-0.028-0.007-0.022-0.006-0.046-0.011-0.068-0.016-0.054-0.013-0.107-0.024-0.162-0.035-0.021-0.005-0.042-0.009-0.063-0.013-0.012-0.002-0.023-0.004-0.034-0.006l-0.032-0.006c-0.041-0.007-0.083-0.014-0.125-0.02-0.024-0.004-0.049-0.007-0.071-0.01-0.052-0.007-0.104-0.013-0.156-0.019-0.019-0.002-0.037-0.004-0.053-0.006l-55.268-4.977c-0.152-0.015-0.307-0.021-0.459-0.021-1.717 0-3.306 0.856-4.251 2.291l-8.45 12.815-10.083-1.81c-0.3-0.054-0.604-0.081-0.906-0.081-2.465 0-4.571 1.765-5.009 4.195-0.24 1.339 0.056 2.692 0.833 3.809 0.776 1.117 1.942 1.865 3.281 2.104l13.39 2.404c0.297 0.053 0.6 0.079 0.899 0.079 1.717 0 3.307-0.855 4.253-2.29l5.506-8.352h55.826C89.035 76.348 89.085 76.346 89.136 76.344zM32.542 74.055c-0.386 0-0.745 0.193-0.957 0.516l-5.846 8.867c-0.521 0.788-1.396 1.259-2.339 1.259-0.166 0-0.333-0.015-0.496-0.043L9.517 82.25c-0.736-0.133-1.378-0.543-1.805-1.157-0.428-0.614-0.59-1.358-0.458-2.095 0.24-1.338 1.397-2.308 2.752-2.308 0.166 0 0.334 0.015 0.501 0.045l10.826 1.943c0.452 0.08 0.907-0.115 1.16-0.497l8.866-13.447c0.566-0.859 1.56-1.342 2.59-1.248l55.234 4.974c0.007 0.001 0.012 0.002 0.017 0.002 0.014 0.002 0.026 0.003 0.04 0.005 0.021 0.002 0.042 0.004 0.068 0.007l0.057 0.008c0.009 0.001 0.018 0.002 0.023 0.003l0.108 0.019c0.009 0.002 0.018 0.004 0.027 0.006 0.024 0.005 0.048 0.011 0.071 0.017 0.012 0.002 0.023 0.005 0.034 0.007l0.104 0.027c0.016 0.005 0.033 0.01 0.055 0.016l0.315 0.119c0.022 0.01 0.044 0.019 0.065 0.029 0.004 0.002 0.018 0.009 0.021 0.011l0.021 0.01c0.025 0.013 0.052 0.025 0.078 0.04 0.005 0.003 0.01 0.006 0.015 0.008 0.004 0.003 0.009 0.005 0.014 0.008 0.03 0.018 0.061 0.034 0.09 0.052 0.007 0.004 0.015 0.01 0.018 0.011l0.03 0.02c0.021 0.013 0.043 0.026 0.063 0.04 0.012 0.009 0.025 0.019 0.034 0.024 0.025 0.017 0.05 0.034 0.075 0.052l0.018 0.015c0.006 0.005 0.012 0.01 0.018 0.014 0.025 0.019 0.05 0.038 0.074 0.058 0.009 0.008 0.019 0.016 0.027 0.022-0.009-0.007-0.018-0.015-0.019-0.015 0 0 0.001 0 0.001 0.001 0.008 0.007 0.015 0.013 0.022 0.02 0.023 0.019 0.046 0.038 0.068 0.058 0.017 0.017 0.032 0.031 0.043 0.041 0.022 0.021 0.045 0.042 0.072 0.069l0.027 0.028c0.019 0.02 0.037 0.039 0.054 0.057l0.164 0.197c0.021 0.026 0.039 0.054 0.053 0.073l0.023 0.033c0.001 0 0.001 0.001 0.002 0.001 0.019 0.029 0.038 0.058 0.057 0.088 0.008 0.012 0.016 0.023 0.022 0.035 0.017 0.027 0.032 0.055 0.049 0.083 0.005 0.009 0.015 0.025 0.02 0.034 0.011 0.02 0.021 0.04 0.031 0.061l0.011 0.021c0.008 0.015 0.016 0.03 0.025 0.051l0.031 0.066c0.001 0.003 0.01 0.022 0.012 0.025 0.005 0.014 0.008 0.02 0.014 0.033l0.025 0.064c0.004 0.01 0.018 0.043 0.021 0.053 0.007 0.02 0.014 0.039 0.017 0.047l0.044 0.139c0.007 0.025 0.015 0.052 0.023 0.085 0.004 0.018 0.008 0.035 0.013 0.053 0.005 0.021 0.01 0.042 0.015 0.063l0.002 0.013c0.003 0.016 0.006 0.032 0.009 0.048 0.006 0.027 0.011 0.055 0.016 0.082l0.001 0.006 0.004 0.028c0.004 0.033 0.009 0.066 0.012 0.099 0.001 0.009 0.002 0.018 0.003 0.026 0.001 0.01 0.002 0.019 0.003 0.028 0.003 0.028 0.006 0.058 0.007 0.087 0 0.021 0.001 0.044 0.003 0.065 0.001 0.027 0.001 0.054 0.001 0.081 0 0.009 0.001 0.018 0.001 0.027l-0.001 0.013c0 0.011 0 0.021 0 0.03 0 0.026-0.001 0.053-0.001 0.065l-0.006 0.086c-0.001 0.011-0.002 0.021-0.003 0.031-0.001 0.014-0.003 0.026-0.004 0.039-0.002 0.026-0.005 0.053-0.011 0.094l-0.004 0.031c0 0.004-0.001 0.007-0.001 0.01-0.005 0.032-0.01 0.064-0.017 0.097-0.002 0.015-0.005 0.028-0.007 0.042 0 0.001 0 0.001 0 0.001-0.006 0.03-0.013 0.06-0.021 0.089-0.005 0.02-0.007 0.028-0.011 0.048-0.007 0.029-0.015 0.058-0.023 0.087-0.004 0.013-0.008 0.026-0.012 0.042-0.001 0.003-0.001 0.005-0.002 0.007-0.008 0.025-0.016 0.049-0.024 0.073-0.003 0.008-0.01 0.028-0.012 0.036l-0.055 0.142c-0.002 0.007-0.005 0.013-0.008 0.02l-0.078 0.169c-0.01 0.02-0.02 0.04-0.03 0.06-0.002 0.003-0.004 0.006-0.005 0.009l0 0-0.027 0.048c-0.012 0.021-0.023 0.042-0.04 0.069l-0.021 0.033c-0.015 0.023-0.029 0.048-0.046 0.071-0.002 0.003-0.005 0.007-0.007 0.011-0.008 0.011-0.017 0.022-0.024 0.034-0.017 0.025-0.035 0.05-0.053 0.074-0.005 0.006-0.01 0.012-0.014 0.018-0.003 0.005-0.007 0.009-0.01 0.013-0.016 0.021-0.031 0.043-0.048 0.063-0.005 0.006-0.01 0.012-0.013 0.016-0.008 0.009-0.016 0.018-0.023 0.026-0.016 0.019-0.031 0.038-0.055 0.064-0.004 0.004-0.01 0.01-0.011 0.011-0.011 0.012-0.022 0.023-0.032 0.035-0.02 0.021-0.038 0.041-0.059 0.062-0.001 0.001-0.003 0.003-0.004 0.004l-0.032 0.03c-0.025 0.025-0.051 0.05-0.072 0.068-0.001 0.001-0.014 0.013-0.015 0.013-0.006 0.005-0.012 0.01-0.017 0.015l-0.281 0.219c-0.016 0.011-0.032 0.021-0.057 0.036-0.001 0.001-0.017 0.011-0.018 0.011l-0.146 0.087c-0.019 0.01-0.036 0.019-0.055 0.028-0.013 0.006-0.026 0.014-0.039 0.021l-0.201 0.092c-0.019 0.007-0.036 0.014-0.054 0.021l-0.031 0.012c-0.016 0.005-0.031 0.011-0.047 0.017l-0.093 0.03c-0.014 0.004-0.027 0.008-0.041 0.012-0.022 0.007-0.044 0.014-0.076 0.022-0.012 0.002-0.024 0.006-0.036 0.009l-0.028 0.006c-0.019 0.005-0.036 0.01-0.055 0.014-0.011 0.002-0.021 0.004-0.032 0.006-0.005 0.001-0.009 0.002-0.014 0.003-0.034 0.007-0.068 0.013-0.104 0.019-0.014 0.001-0.028 0.004-0.039 0.005-0.032 0.005-0.065 0.01-0.098 0.013-0.001 0-0.002 0-0.003 0-0.016 0.002-0.032 0.003-0.048 0.005-0.026 0.003-0.054 0.005-0.08 0.006-0.012 0-0.022 0.001-0.033 0.002-0.006 0-0.013 0-0.015 0l-0.033 0.001c-0.023 0.001-0.048 0.002-0.071 0.002H32.542z" fill="#e65728" data-fill-palette-color="accent"></path></g></svg><g></g></g></svg></g><g></g></svg></g></svg></g></svg></g></svg></g></svg><rect width="320" height="360" fill="none" stroke="none" visibility="hidden"></rect></g></svg></g></svg>