<svg xmlns="http://www.w3.org/2000/svg" version="1.1" xmlns:xlink="http://www.w3.org/1999/xlink" xmlns:svgjs="http://svgjs.dev/svgjs" width="1000" height="1000" viewBox="0 0 1000 1000"><rect width="1000" height="1000" fill="#ffffff"></rect><g transform="matrix(0.7,0,0,0.7,150.0000000000001,106.25)"><svg viewBox="0 0 320 360" data-background-color="#ffffff" preserveAspectRatio="xMidYMid meet" height="1125" width="1000" xmlns="http://www.w3.org/2000/svg" xmlns:xlink="http://www.w3.org/1999/xlink"><defs></defs><g id="tight-bounds" transform="matrix(1,0,0,1,0,0)"><svg viewBox="0 0 320 360" height="360" width="320"><g><svg></svg></g><g><svg viewBox="0 0 320 360" height="360" width="320"><g><path d="M20.961 227.22l3.726 4.658-1.863-6.056c-0.466-2.795-3.726 0.466-1.863 1.398M25.153 224.425c1.397 2.329 2.795 4.658 2.795 6.987 0 3.261 2.795 4.658 5.123 5.589-3.261-3.726-5.124-13.974-7.918-12.576M204.017 26.929c7.918 0 15.371-0.932 23.756 0.931 20.495 5.124 37.729 15.371 49.374 29.811l32.606 52.169c1.397 13.042 4.192 27.482 3.726 43.319 3.261 0 2.795-4.658 6.521-5.59-3.726 9.316-5.59 20.961-6.521 34.469-2.329-7.453 0-18.632 0.466-24.687-3.261 5.124-5.124 1.397-5.124-0.932 0.466-3.726-1.397-3.261-2.795-4.658-5.124-4.658-8.384-9.782-12.11-17.7 2.329-6.055 2.795-14.905-4.658-19.563-2.329-1.397-5.124-3.726-6.521-7.453-1.863-5.124-5.124-11.179-4.193-19.097 0.466-2.329-6.987 5.124-11.179 1.863-18.166-12.576-36.332-27.016-58.224-39.127-11.645 0-20.029-4.192-24.221-9.316-3.726-4.658-0.932-10.713 4.658-11.179 3.261 0 6.987-0.932 9.782 0.932 0.466-1.863 2.329-4.192 4.657-4.192M157.904 16.215l0.932 0.466c4.658 0.932 6.987 7.453 12.11 5.124 0 3.261 0.466 6.521-0.466 8.85-1.397 3.726-5.59 3.726-8.85 3.726-31.208-1.863-49.374 11.179-68.471 22.358-5.124 3.261-10.713 5.59-14.906 9.782-20.029 18.632-41.921 35.866-47.045 70.335l-4.192 38.195c-0.466 4.192-5.124 8.384-4.192 13.508l3.26 22.824c-3.261-3.261-5.124 0.932-4.192 2.795 0.466 1.397 2.329 6.055 5.124 1.863 3.726 6.987 7.453 20.495 12.576 26.55 15.837 18.632 36.332 35.4 53.101 52.169 4.192-0.932 7.453-0.932 8.384-3.727 1.397 2.795-1.397 5.59-3.726 6.056 7.453 4.658 15.837 8.85 27.016 9.781 14.44 0.932 27.948 3.261 40.524 6.522 6.521-1.863 13.042-2.795 20.029-3.261 2.329 0 3.726-3.726 6.521-4.658l0.466-4.658c2.795 4.192 2.329-1.397 0.466-4.192 3.261 2.795 4.192 5.124 5.589 6.987 0-1.397 3.726-6.521 3.727-0.466l0.931-6.055c1.397-0.932 1.863 5.124 3.261 0.931 1.397-4.192 4.192-0.932 6.987-2.329-0.932 1.863-0.466 5.59 2.794 3.261l3.727-3.261c2.329 5.59 6.055 3.261 7.918 2.329 20.495-13.042 40.99-28.413 60.553-43.784l-0.466 6.055 2.329-7.453c2.329 2.329 4.192 0.466 5.124-0.931 2.795-4.658 6.521-9.316 12.577-13.508-7.453 20.029-16.303 35.866-27.482 48.908l-4.658 5.59c0 3.261-0.932 7.453-4.658 7.918-1.863 0.466-5.59-0.932-8.384 1.863-1.397 1.863 3.261 5.59-0.466 2.795-3.261-2.329-6.521 0-10.248 0.932-2.795 0.932 1.863 3.726 2.795 5.589 0.932 1.863 1.863 3.726 1.398 6.056l-5.124-5.59c-6.055 3.261-9.782 9.316-14.906 13.974-2.329 1.863-1.397 5.124-1.397 7.918-3.261 0-6.987-0.932-8.85 0.932-1.397 1.863-0.932 4.658-0.932 7.453-4.658-0.466-5.124-7.453-9.315-6.056-4.192 0.932-8.85 1.397-12.577 3.727 2.795 5.59-4.658 2.329-3.726 3.26-6.987-4.192-13.042-7.453-20.495-4.658-15.837-5.124-35.4-2.795-49.84-0.931 0-2.329 0.466-4.658-0.466-5.124-0.932 2.329-3.726 1.397-3.26 1.397-8.85-6.055-17.7-9.782-27.016-14.905-8.384 0.932-16.303-3.261-18.632-5.59-6.521-6.055-13.974-2.795-20.029-4.192-13.042-3.261-17.7-16.769-19.098-26.084-0.932-4.658-4.658-6.521-6.055-6.056-6.055-19.563-15.371-37.263-22.824-55.429-1.863-4.658-1.397-9.316-1.397-14.44 2.329 0.932 4.658 0.466 4.192-2.794-2.329-15.371-7.918-27.016-13.974-38.195 3.261-15.837 3.726-34.469 11.179-48.443 6.521-12.576 18.632-19.098 27.016-29.811 2.795-3.726 2.795-8.85 5.59-12.11 9.316-9.316 18.632-19.098 28.879-27.482 4.658-3.726 10.247 0 17.234-1.397 2.329-8.384 11.645-15.837 20.495-13.508 3.726 0.932 11.179-8.85 13.508-9.782 3.726-1.397 1.863 3.726 1.863 6.987 8.85-6.987 20.961-10.713 32.14-14.906" fill="#e65728" data-fill-palette-color="tertiary"></path></g><g transform="matrix(1,0,0,1,64,158.24000813119767)"><svg viewBox="0 0 192 43.51998373760463" height="43.51998373760463" width="192"><g><svg viewBox="0 0 192 43.51998373760463" height="43.51998373760463" width="192"><g><svg viewBox="0 0 192 43.51998373760463" height="43.51998373760463" width="192"><g transform="matrix(1,0,0,1,0,25.86286181436061)"><svg viewBox="0 0 192 17.657121923244027" height="17.657121923244027" width="192"><g><svg viewBox="0 0 192 17.657121923244027" height="17.657121923244027" width="192"><g><svg viewBox="0 0 192 10.010137581462708" height="10.010137581462708" width="192"><g transform="matrix(1,0,0,1,0,0)"><svg width="192" viewBox="2.75 -35.5 690.4500122070312 36" height="10.010137581462708" data-palette-color="#e65728"><path d="M13.15 0L4.1 0Q3.55 0 3.15-0.4 2.75-0.8 2.75-1.35L2.75-1.35 2.75-33.65Q2.75-34.2 3.15-34.6 3.55-35 4.1-35L4.1-35 12-35Q13-35 13.5-34.45 14-33.9 14.15-33.65L14.15-33.65 21.4-21.65 28.65-33.65Q28.8-33.9 29.3-34.45 29.8-35 30.8-35L30.8-35 38.7-35Q39.25-35 39.65-34.6 40.05-34.2 40.05-33.65L40.05-33.65 40.05-1.35Q40.05-0.8 39.65-0.4 39.25 0 38.7 0L38.7 0 29.65 0Q29.1 0 28.7-0.4 28.3-0.8 28.3-1.35L28.3-1.35 28.3-15.05 25-9.65Q24.75-9.25 24.33-8.83 23.9-8.4 23.15-8.4L23.15-8.4 19.65-8.4Q18.9-8.4 18.48-8.83 18.05-9.25 17.8-9.65L17.8-9.65 14.5-15.05 14.5-1.35Q14.5-0.8 14.1-0.4 13.7 0 13.15 0L13.15 0ZM65.45 0L55.65 0Q55.1 0 54.7-0.4 54.3-0.8 54.3-1.35L54.3-1.35 54.3-11.2 43.05-33.45Q43-33.55 42.97-33.68 42.95-33.8 42.95-33.9L42.95-33.9Q42.95-34.35 43.27-34.68 43.6-35 44.05-35L44.05-35 53.45-35Q54.45-35 54.95-34.5 55.45-34 55.55-33.75L55.55-33.75 60.55-23.7 65.55-33.75Q65.65-34 66.15-34.5 66.65-35 67.65-35L67.65-35 77.05-35Q77.5-35 77.82-34.68 78.15-34.35 78.15-33.9L78.15-33.9Q78.15-33.8 78.12-33.68 78.1-33.55 78.05-33.45L78.05-33.45 66.8-11.2 66.8-1.35Q66.8-0.8 66.4-0.4 66 0 65.45 0L65.45 0ZM95.65 0.5L95.65 0.5Q90.1 0.5 86.5-1 82.9-2.5 81.1-4.95 79.3-7.4 79.2-10.15L79.2-10.15Q79.2-10.6 79.52-10.93 79.85-11.25 80.3-11.25L80.3-11.25 89.8-11.25Q90.6-11.25 91.02-11.03 91.45-10.8 91.95-10.4L91.95-10.4Q92.45-10.05 92.97-9.78 93.5-9.5 94.17-9.38 94.85-9.25 95.65-9.25L95.65-9.25Q97.35-9.25 98.37-9.63 99.4-10 99.4-10.65L99.4-10.65Q99.4-11.25 98.82-11.65 98.25-12.05 96.85-12.38 95.45-12.7 92.95-13L92.95-13Q89-13.55 86.1-14.85 83.2-16.15 81.62-18.43 80.05-20.7 80.05-24L80.05-24Q80.05-27.4 81.97-30 83.9-32.6 87.32-34.05 90.75-35.5 95.3-35.5L95.3-35.5Q99.05-35.5 101.95-34.52 104.85-33.55 106.85-31.98 108.85-30.4 109.9-28.6 110.95-26.8 111-25.15L111-25.15Q111-24.7 110.67-24.38 110.35-24.05 109.95-24.05L109.95-24.05 99.95-24.05Q99.25-24.05 98.82-24.25 98.4-24.45 97.95-24.85L97.95-24.85Q97.7-25.1 97.02-25.43 96.35-25.75 95.3-25.75L95.3-25.75Q94.05-25.75 93.47-25.38 92.9-25 92.9-24.35L92.9-24.35Q92.9-23.9 93.35-23.5 93.8-23.1 95-22.8 96.2-22.5 98.45-22.2L98.45-22.2Q103.45-21.6 106.47-20.28 109.5-18.95 110.87-16.75 112.25-14.55 112.25-11.3L112.25-11.3Q112.25-7.65 110.07-5 107.9-2.35 104.15-0.93 100.4 0.5 95.65 0.5ZM134.99 0L124.99 0Q124.44 0 124.04-0.4 123.64-0.8 123.64-1.35L123.64-1.35 123.64-24.25 115.34-24.25Q114.79-24.25 114.39-24.65 113.99-25.05 113.99-25.6L113.99-25.6 113.99-33.65Q113.99-34.2 114.39-34.6 114.79-35 115.34-35L115.34-35 144.64-35Q145.19-35 145.59-34.6 145.99-34.2 145.99-33.65L145.99-33.65 145.99-25.6Q145.99-25.05 145.59-24.65 145.19-24.25 144.64-24.25L144.64-24.25 136.34-24.25 136.34-1.35Q136.34-0.8 135.94-0.4 135.54 0 134.99 0L134.99 0ZM161.14 0L150.94 0Q150.39 0 149.99-0.4 149.59-0.8 149.59-1.35L149.59-1.35 149.59-33.65Q149.59-34.2 149.99-34.6 150.39-35 150.94-35L150.94-35 161.14-35Q161.69-35 162.09-34.6 162.49-34.2 162.49-33.65L162.49-33.65 162.49-1.35Q162.49-0.8 162.09-0.4 161.69 0 161.14 0L161.14 0ZM183.84 0.5L183.84 0.5Q179.04 0.5 175.34-0.9 171.64-2.3 169.46-5.3 167.29-8.3 167.09-13.05L167.09-13.05Q167.04-15.1 167.04-17.45 167.04-19.8 167.09-21.95L167.09-21.95Q167.29-26.6 169.51-29.6 171.74-32.6 175.46-34.05 179.19-35.5 183.84-35.5L183.84-35.5Q187.04-35.5 190.01-34.77 192.99-34.05 195.39-32.5 197.79-30.95 199.21-28.53 200.64-26.1 200.69-22.7L200.69-22.7Q200.69-22.25 200.36-21.93 200.04-21.6 199.59-21.6L199.59-21.6 189.39-21.6Q188.59-21.6 188.21-21.93 187.84-22.25 187.54-23.05L187.54-23.05Q186.99-24.65 186.04-25.2 185.09-25.75 183.79-25.75L183.79-25.75Q182.14-25.75 181.16-24.88 180.19-24 180.09-21.7L180.09-21.7Q179.94-17.6 180.09-13.3L180.09-13.3Q180.19-11 181.16-10.13 182.14-9.25 183.79-9.25L183.79-9.25Q185.09-9.25 186.06-9.85 187.04-10.45 187.54-11.95L187.54-11.95Q187.79-12.8 188.19-13.1 188.59-13.4 189.39-13.4L189.39-13.4 199.59-13.4Q200.04-13.4 200.36-13.08 200.69-12.75 200.69-12.3L200.69-12.3Q200.64-8.9 199.21-6.48 197.79-4.05 195.39-2.5 192.99-0.95 190.01-0.23 187.04 0.5 183.84 0.5ZM224.33 0L215.28 0Q214.73 0 214.33-0.4 213.93-0.8 213.93-1.35L213.93-1.35 213.93-33.65Q213.93-34.2 214.33-34.6 214.73-35 215.28-35L215.28-35 223.18-35Q224.18-35 224.68-34.45 225.18-33.9 225.33-33.65L225.33-33.65 232.58-21.65 239.83-33.65Q239.98-33.9 240.48-34.45 240.98-35 241.98-35L241.98-35 249.88-35Q250.43-35 250.83-34.6 251.23-34.2 251.23-33.65L251.23-33.65 251.23-1.35Q251.23-0.8 250.83-0.4 250.43 0 249.88 0L249.88 0 240.83 0Q240.28 0 239.88-0.4 239.48-0.8 239.48-1.35L239.48-1.35 239.48-15.05 236.18-9.65Q235.93-9.25 235.51-8.83 235.08-8.4 234.33-8.4L234.33-8.4 230.83-8.4Q230.08-8.4 229.66-8.83 229.23-9.25 228.98-9.65L228.98-9.65 225.68-15.05 225.68-1.35Q225.68-0.8 225.28-0.4 224.88 0 224.33 0L224.33 0ZM264.33 0L255.08 0Q254.63 0 254.31-0.33 253.98-0.65 253.98-1.1L253.98-1.1Q253.98-1.3 254.03-1.45L254.03-1.45 265.18-33.35Q265.33-33.9 265.88-34.45 266.43-35 267.43-35L267.43-35 278.28-35Q279.28-35 279.83-34.45 280.38-33.9 280.53-33.35L280.53-33.35 291.68-1.45Q291.73-1.3 291.73-1.1L291.73-1.1Q291.73-0.65 291.41-0.33 291.08 0 290.63 0L290.63 0 281.38 0Q280.43 0 280.01-0.43 279.58-0.85 279.43-1.25L279.43-1.25 278.23-4.55 267.48-4.55 266.28-1.25Q266.13-0.85 265.73-0.43 265.33 0 264.33 0L264.33 0ZM272.83-23.6L270.03-14.3 275.68-14.3 272.83-23.6ZM309.08 0.5L309.08 0.5Q303.53 0.5 299.93-1 296.33-2.5 294.53-4.95 292.73-7.4 292.63-10.15L292.63-10.15Q292.63-10.6 292.95-10.93 293.28-11.25 293.73-11.25L293.73-11.25 303.23-11.25Q304.03-11.25 304.45-11.03 304.88-10.8 305.38-10.4L305.38-10.4Q305.88-10.05 306.4-9.78 306.93-9.5 307.6-9.38 308.28-9.25 309.08-9.25L309.08-9.25Q310.78-9.25 311.8-9.63 312.83-10 312.83-10.65L312.83-10.65Q312.83-11.25 312.25-11.65 311.68-12.05 310.28-12.38 308.88-12.7 306.38-13L306.38-13Q302.43-13.55 299.53-14.85 296.63-16.15 295.05-18.43 293.48-20.7 293.48-24L293.48-24Q293.48-27.4 295.4-30 297.33-32.6 300.75-34.05 304.18-35.5 308.73-35.5L308.73-35.5Q312.48-35.5 315.38-34.52 318.28-33.55 320.28-31.98 322.28-30.4 323.33-28.6 324.38-26.8 324.43-25.15L324.43-25.15Q324.43-24.7 324.1-24.38 323.78-24.05 323.38-24.05L323.38-24.05 313.38-24.05Q312.68-24.05 312.25-24.25 311.83-24.45 311.38-24.85L311.38-24.85Q311.13-25.1 310.45-25.43 309.78-25.75 308.73-25.75L308.73-25.75Q307.48-25.75 306.9-25.38 306.33-25 306.33-24.35L306.33-24.35Q306.33-23.9 306.78-23.5 307.23-23.1 308.43-22.8 309.63-22.5 311.88-22.2L311.88-22.2Q316.88-21.6 319.9-20.28 322.93-18.95 324.3-16.75 325.68-14.55 325.68-11.3L325.68-11.3Q325.68-7.65 323.5-5 321.33-2.35 317.58-0.93 313.83 0.5 309.08 0.5ZM343.93 0.5L343.93 0.5Q338.38 0.5 334.78-1 331.18-2.5 329.38-4.95 327.58-7.4 327.48-10.15L327.48-10.15Q327.48-10.6 327.8-10.93 328.13-11.25 328.58-11.25L328.58-11.25 338.08-11.25Q338.88-11.25 339.3-11.03 339.73-10.8 340.23-10.4L340.23-10.4Q340.73-10.05 341.25-9.78 341.78-9.5 342.45-9.38 343.13-9.25 343.93-9.25L343.93-9.25Q345.63-9.25 346.65-9.63 347.68-10 347.68-10.65L347.68-10.65Q347.68-11.25 347.1-11.65 346.53-12.05 345.13-12.38 343.73-12.7 341.23-13L341.23-13Q337.28-13.55 334.38-14.85 331.48-16.15 329.9-18.43 328.33-20.7 328.33-24L328.33-24Q328.33-27.4 330.25-30 332.18-32.6 335.6-34.05 339.03-35.5 343.58-35.5L343.58-35.5Q347.33-35.5 350.23-34.52 353.13-33.55 355.13-31.98 357.13-30.4 358.18-28.6 359.23-26.8 359.28-25.15L359.28-25.15Q359.28-24.7 358.95-24.38 358.63-24.05 358.23-24.05L358.23-24.05 348.23-24.05Q347.53-24.05 347.1-24.25 346.68-24.45 346.23-24.85L346.23-24.85Q345.98-25.1 345.3-25.43 344.63-25.75 343.58-25.75L343.58-25.75Q342.33-25.75 341.75-25.38 341.18-25 341.18-24.35L341.18-24.35Q341.18-23.9 341.63-23.5 342.08-23.1 343.28-22.8 344.48-22.5 346.73-22.2L346.73-22.2Q351.73-21.6 354.75-20.28 357.78-18.95 359.15-16.75 360.53-14.55 360.53-11.3L360.53-11.3Q360.53-7.65 358.35-5 356.18-2.35 352.43-0.93 348.68 0.5 343.93 0.5ZM371.77 0L362.52 0Q362.07 0 361.75-0.33 361.42-0.65 361.42-1.1L361.42-1.1Q361.42-1.3 361.47-1.45L361.47-1.45 372.62-33.35Q372.77-33.9 373.32-34.45 373.87-35 374.87-35L374.87-35 385.72-35Q386.72-35 387.27-34.45 387.82-33.9 387.97-33.35L387.97-33.35 399.12-1.45Q399.17-1.3 399.17-1.1L399.17-1.1Q399.17-0.65 398.85-0.33 398.52 0 398.07 0L398.07 0 388.82 0Q387.87 0 387.45-0.43 387.02-0.85 386.87-1.25L386.87-1.25 385.67-4.55 374.92-4.55 373.72-1.25Q373.57-0.85 373.17-0.43 372.77 0 371.77 0L371.77 0ZM380.27-23.6L377.47-14.3 383.12-14.3 380.27-23.6ZM417.87 0.5L417.87 0.5Q412.82 0.5 409.12-1 405.42-2.5 403.32-5.55 401.22-8.6 401.02-13.25L401.02-13.25Q400.97-15.3 400.97-17.7 400.97-20.1 401.02-22.25L401.02-22.25Q401.22-26.7 403.35-29.63 405.47-32.55 409.22-34.02 412.97-35.5 417.87-35.5L417.87-35.5Q421.82-35.5 424.97-34.63 428.12-33.75 430.37-32.2 432.62-30.65 433.82-28.63 435.02-26.6 435.07-24.35L435.07-24.35Q435.07-23.9 434.75-23.58 434.42-23.25 433.97-23.25L433.97-23.25 422.92-23.25Q422.37-23.25 422.05-23.4 421.72-23.55 421.47-23.8L421.47-23.8Q421.27-24.05 420.9-24.53 420.52-25 419.82-25.38 419.12-25.75 417.87-25.75L417.87-25.75Q416.02-25.75 415.07-24.83 414.12-23.9 414.02-22L414.02-22Q413.87-17.85 414.02-13.5L414.02-13.5Q414.12-11.25 415.17-10.25 416.22-9.25 418.07-9.25L418.07-9.25Q419.32-9.25 420.27-9.6 421.22-9.95 421.77-10.75 422.32-11.55 422.32-12.8L422.32-12.8 422.32-12.85 419.97-12.85Q419.42-12.85 419.02-13.25 418.62-13.65 418.62-14.2L418.62-14.2 418.62-19.75Q418.62-20.3 419.02-20.7 419.42-21.1 419.97-21.1L419.97-21.1 433.72-21.1Q434.27-21.1 434.67-20.7 435.07-20.3 435.07-19.75L435.07-19.75 435.07-13.25Q435.07-8.75 432.87-5.7 430.67-2.65 426.8-1.07 422.92 0.5 417.87 0.5ZM466.97 0L440.92 0Q440.37 0 439.97-0.4 439.57-0.8 439.57-1.35L439.57-1.35 439.57-33.65Q439.57-34.2 439.97-34.6 440.37-35 440.92-35L440.92-35 466.57-35Q467.12-35 467.52-34.6 467.92-34.2 467.92-33.65L467.92-33.65 467.92-26.6Q467.92-26.05 467.52-25.65 467.12-25.25 466.57-25.25L466.57-25.25 451.57-25.25 451.57-22.1 465.47-22.1Q466.02-22.1 466.42-21.7 466.82-21.3 466.82-20.75L466.82-20.75 466.82-14.25Q466.82-13.7 466.42-13.3 466.02-12.9 465.47-12.9L465.47-12.9 451.57-12.9 451.57-9.75 466.97-9.75Q467.52-9.75 467.92-9.35 468.32-8.95 468.32-8.4L468.32-8.4 468.32-1.35Q468.32-0.8 467.92-0.4 467.52 0 466.97 0L466.97 0ZM508.76 0L483.56 0Q483.01 0 482.61-0.4 482.21-0.8 482.21-1.35L482.21-1.35 482.21-33.65Q482.21-34.2 482.61-34.6 483.01-35 483.56-35L483.56-35 493.56-35Q494.11-35 494.51-34.6 494.91-34.2 494.91-33.65L494.91-33.65 494.91-10.25 508.76-10.25Q509.31-10.25 509.71-9.85 510.11-9.45 510.11-8.9L510.11-8.9 510.11-1.35Q510.11-0.8 509.71-0.4 509.31 0 508.76 0L508.76 0ZM529.31 0.5L529.31 0.5Q524.41 0.5 520.74-1 517.06-2.5 514.94-5.53 512.81-8.55 512.61-13L512.61-13Q512.56-15.05 512.56-17.35 512.56-19.65 512.61-21.8L512.61-21.8Q512.81-26.2 514.91-29.25 517.01-32.3 520.71-33.9 524.41-35.5 529.31-35.5L529.31-35.5Q534.21-35.5 537.91-33.9 541.61-32.3 543.74-29.25 545.86-26.2 546.01-21.8L546.01-21.8Q546.11-19.65 546.11-17.35 546.11-15.05 546.01-13L546.01-13Q545.81-8.55 543.69-5.53 541.56-2.5 537.89-1 534.21 0.5 529.31 0.5ZM529.31-9.25L529.31-9.25Q530.96-9.25 531.96-10.23 532.96-11.2 533.01-13.3L533.01-13.3Q533.11-15.45 533.11-17.55 533.11-19.65 533.01-21.7L533.01-21.7Q532.96-23.1 532.49-24 532.01-24.9 531.21-25.33 530.41-25.75 529.31-25.75L529.31-25.75Q528.26-25.75 527.44-25.33 526.61-24.9 526.14-24 525.66-23.1 525.61-21.7L525.61-21.7Q525.56-19.65 525.56-17.55 525.56-15.45 525.61-13.3L525.61-13.3Q525.71-11.2 526.69-10.23 527.66-9.25 529.31-9.25ZM561.01 0L551.96 0Q551.41 0 551.01-0.4 550.61-0.8 550.61-1.35L550.61-1.35 550.61-33.65Q550.61-34.2 551.01-34.6 551.41-35 551.96-35L551.96-35 559.86-35Q560.86-35 561.31-34.55 561.76-34.1 561.91-33.85L561.91-33.85 570.36-20 570.36-33.65Q570.36-34.2 570.76-34.6 571.16-35 571.71-35L571.71-35 580.76-35Q581.31-35 581.71-34.6 582.11-34.2 582.11-33.65L582.11-33.65 582.11-1.35Q582.11-0.8 581.71-0.4 581.31 0 580.76 0L580.76 0 572.86 0Q571.86 0 571.41-0.48 570.96-0.95 570.81-1.15L570.81-1.15 562.36-13.9 562.36-1.35Q562.36-0.8 561.96-0.4 561.56 0 561.01 0L561.01 0ZM603.61 0L588.96 0Q588.4 0 588-0.4 587.61-0.8 587.61-1.35L587.61-1.35 587.61-33.65Q587.61-34.2 588-34.6 588.4-35 588.96-35L588.96-35 603.36-35Q608.06-35 611.75-33.43 615.46-31.85 617.68-28.8 619.9-25.75 620.06-21.25L620.06-21.25Q620.15-19.1 620.15-17.48 620.15-15.85 620.06-13.8L620.06-13.8Q619.86-9.1 617.75-6.03 615.65-2.95 612.03-1.48 608.4 0 603.61 0L603.61 0ZM600.11-25.25L600.11-9.75 603.36-9.75Q604.46-9.75 605.33-10.18 606.21-10.6 606.75-11.5 607.31-12.4 607.36-13.8L607.36-13.8Q607.46-15.25 607.48-16.4 607.5-17.55 607.48-18.73 607.46-19.9 607.36-21.25L607.36-21.25Q607.25-23.35 606.03-24.3 604.81-25.25 603.11-25.25L603.11-25.25 600.11-25.25ZM640.4 0.5L640.4 0.5Q635.5 0.5 631.83-1 628.15-2.5 626.03-5.53 623.9-8.55 623.7-13L623.7-13Q623.65-15.05 623.65-17.35 623.65-19.65 623.7-21.8L623.7-21.8Q623.9-26.2 626-29.25 628.1-32.3 631.8-33.9 635.5-35.5 640.4-35.5L640.4-35.5Q645.3-35.5 649-33.9 652.7-32.3 654.83-29.25 656.95-26.2 657.1-21.8L657.1-21.8Q657.2-19.65 657.2-17.35 657.2-15.05 657.1-13L657.1-13Q656.9-8.55 654.78-5.53 652.65-2.5 648.98-1 645.3 0.5 640.4 0.5ZM640.4-9.25L640.4-9.25Q642.05-9.25 643.05-10.23 644.05-11.2 644.1-13.3L644.1-13.3Q644.2-15.45 644.2-17.55 644.2-19.65 644.1-21.7L644.1-21.7Q644.05-23.1 643.58-24 643.1-24.9 642.3-25.33 641.5-25.75 640.4-25.75L640.4-25.75Q639.35-25.75 638.53-25.33 637.7-24.9 637.23-24 636.75-23.1 636.7-21.7L636.7-21.7Q636.65-19.65 636.65-17.55 636.65-15.45 636.7-13.3L636.7-13.3Q636.8-11.2 637.78-10.23 638.75-9.25 640.4-9.25ZM672.1 0L663.05 0Q662.5 0 662.1-0.4 661.7-0.8 661.7-1.35L661.7-1.35 661.7-33.65Q661.7-34.2 662.1-34.6 662.5-35 663.05-35L663.05-35 670.95-35Q671.95-35 672.4-34.55 672.85-34.1 673-33.85L673-33.85 681.45-20 681.45-33.65Q681.45-34.2 681.85-34.6 682.25-35 682.8-35L682.8-35 691.85-35Q692.4-35 692.8-34.6 693.2-34.2 693.2-33.65L693.2-33.65 693.2-1.35Q693.2-0.8 692.8-0.4 692.4 0 691.85 0L691.85 0 683.95 0Q682.95 0 682.5-0.48 682.05-0.95 681.9-1.15L681.9-1.15 673.45-13.9 673.45-1.35Q673.45-0.8 673.05-0.4 672.65 0 672.1 0L672.1 0Z" opacity="1" transform="matrix(1,0,0,1,0,0)" fill="#e65728" class="undefined-text-0" data-fill-palette-color="primary" id="text-0"></path></svg></g></svg></g><g transform="matrix(1,0,0,1,0,11.470856897900072)"><svg viewBox="0 0 192 6.186265025343953" height="6.186265025343953" width="192"><g transform="matrix(1,0,0,1,0,0)"><svg width="192" viewBox="3.8499999046325684 -35.900001525878906 1384.22998046875 44.60000228881836" height="6.186265025343953" data-palette-color="#e65728"><path d="M28.3-33.7L28.3 0 24.25 0 24.25-15.25 7.9-15.25 7.9 0 3.85 0 3.85-33.7 7.9-33.7 7.9-18.9 24.25-18.9 24.25-33.7 28.3-33.7ZM93.32-5L93.32-1.3Q90.37 0.25 86.12 0.25L86.12 0.25Q80.37 0.25 76.85-3.28 73.32-6.8 73.32-12.6L73.32-12.6Q73.32-18.65 76.47-22.15 79.62-25.65 84.57-25.65L84.57-25.65Q89.32-25.65 92.12-22.6 94.92-19.55 94.92-13.95L94.92-13.95Q94.92-12.35 94.67-11L94.67-11 77.37-11Q77.82-7.25 80.22-5.25 82.62-3.25 86.52-3.25L86.52-3.25Q90.77-3.25 93.32-5L93.32-5ZM84.57-22.2L84.57-22.2Q81.72-22.2 79.72-20.15 77.72-18.1 77.37-14.3L77.37-14.3 90.97-14.3 90.97-15.3Q90.97-18.45 89.27-20.33 87.57-22.2 84.57-22.2ZM147.7-3.05L147.7-3.05Q150.4-3.05 152-4.58 153.6-6.1 153.6-8.45L153.6-8.45 153.6-11.7 149.2-11.7Q146-11.7 144.4-10.45 142.8-9.2 142.8-7.3 142.8-5.4 144.05-4.23 145.3-3.05 147.7-3.05ZM153.65 0L153.65-3Q151.7 0.25 146.55 0.25L146.55 0.25Q143 0.25 140.82-1.85 138.65-3.95 138.65-7.15L138.65-7.15Q138.65-10.8 141.42-12.83 144.2-14.85 149-14.85L149-14.85 153.6-14.85 153.6-16.15Q153.6-19.15 152.25-20.68 150.9-22.2 147.7-22.2L147.7-22.2Q143.65-22.2 140.5-20.05L140.5-20.05 140.5-24Q143.35-25.75 148-25.75L148-25.75Q157.55-25.75 157.55-16.05L157.55-16.05 157.55 0 153.65 0ZM207.72-35.35L207.72 0 203.77 0 203.77-35.35 207.72-35.35ZM324.72-25.35L315.57-0.65Q313.62 4.5 310.94 6.6 308.27 8.7 304.82 8.7L304.82 8.7Q303.52 8.7 302.72 8.45L302.72 8.45 302.72 4.9Q303.47 5.1 304.42 5.1L304.42 5.1Q309.47 5.1 311.57-0.65L311.57-0.65 301.32-25.35 305.77-25.35 309.07-17 313.52-5.5Q313.92-6.8 317.52-17L317.52-17 320.47-25.35 324.72-25.35ZM390.54-12.6L390.54-12.6Q390.54-6.95 387.34-3.25 384.14 0.45 378.54 0.45L378.54 0.45Q373.09 0.45 369.92-3.23 366.74-6.9 366.74-12.5L366.74-12.5Q366.74-18.15 370.02-21.93 373.29-25.7 378.54-25.7L378.54-25.7Q384.29-25.7 387.42-22 390.54-18.3 390.54-12.6ZM370.84-12.55L370.84-12.55Q370.84-8.6 372.94-5.83 375.04-3.05 378.54-3.05L378.54-3.05Q382.34-3.05 384.39-5.78 386.44-8.5 386.44-12.55L386.44-12.55Q386.44-16.75 384.49-19.48 382.54-22.2 378.54-22.2L378.54-22.2Q374.94-22.2 372.89-19.4 370.84-16.6 370.84-12.55ZM455.07-25.35L455.07 0 451.12 0 451.12-4.4Q449.12 0.3 443.17 0.3L443.17 0.3Q439.42 0.3 437.24-1.93 435.07-4.15 435.07-7.9L435.07-7.9 435.07-25.35 439.02-25.35 439.02-8.9Q439.02-6.15 440.42-4.7 441.82-3.25 444.22-3.25L444.22-3.25Q447.37-3.25 449.24-5.45 451.12-7.65 451.12-11.4L451.12-11.4 451.12-25.35 455.07-25.35ZM505.29-13.85L505.29 0 501.34 0 501.39-25.35 505.29-25.35 505.29-20.9Q507.29-25.6 512.19-25.6L512.19-25.6Q513.09-25.6 513.59-25.5L513.59-25.5 513.59-21.6Q512.54-21.95 511.44-21.95L511.44-21.95Q508.79-21.95 507.04-19.5 505.29-17.05 505.29-13.85L505.29-13.85ZM611.14-3.75L611.14 0 607.19 0 607.19-35.35 611.14-35.35 611.14-21.55Q613.89-25.75 618.84-25.75L618.84-25.75Q623.64-25.75 626.69-22.08 629.74-18.4 629.74-12.45L629.74-12.45Q629.74-7.1 626.86-3.35 623.99 0.4 618.94 0.4L618.94 0.4Q613.84 0.4 611.14-3.75L611.14-3.75ZM611.14-12.85L611.14-12.85Q611.14-7.8 613.31-5.5 615.49-3.2 618.59-3.2L618.59-3.2Q621.64-3.2 623.64-5.75 625.64-8.3 625.64-12.4L625.64-12.4Q625.64-17.1 623.56-19.63 621.49-22.15 618.34-22.15L618.34-22.15Q615.64-22.15 613.39-19.9 611.14-17.65 611.14-12.85ZM696.86-12.6L696.86-12.6Q696.86-6.95 693.66-3.25 690.46 0.45 684.86 0.45L684.86 0.45Q679.41 0.45 676.24-3.23 673.06-6.9 673.06-12.5L673.06-12.5Q673.06-18.15 676.34-21.93 679.61-25.7 684.86-25.7L684.86-25.7Q690.61-25.7 693.74-22 696.86-18.3 696.86-12.6ZM677.16-12.55L677.16-12.55Q677.16-8.6 679.26-5.83 681.36-3.05 684.86-3.05L684.86-3.05Q688.66-3.05 690.71-5.78 692.76-8.5 692.76-12.55L692.76-12.55Q692.76-16.75 690.81-19.48 688.86-22.2 684.86-22.2L684.86-22.2Q681.26-22.2 679.21-19.4 677.16-16.6 677.16-12.55ZM744.29-12.4L744.29-12.4Q744.29-8.3 746.29-5.75 748.29-3.2 751.34-3.2L751.34-3.2Q754.44-3.2 756.61-5.5 758.79-7.8 758.79-12.85L758.79-12.85Q758.79-17.65 756.54-19.9 754.29-22.15 751.59-22.15L751.59-22.15Q748.44-22.15 746.36-19.63 744.29-17.1 744.29-12.4ZM762.74-35.35L762.74 0 758.79 0 758.79-3.75Q756.09 0.4 750.99 0.4L750.99 0.4Q745.94 0.4 743.06-3.35 740.19-7.1 740.19-12.45L740.19-12.45Q740.19-18.4 743.24-22.08 746.29-25.75 751.09-25.75L751.09-25.75Q756.04-25.75 758.79-21.5L758.79-21.5 758.79-35.35 762.74-35.35ZM829.21-25.35L820.06-0.65Q818.11 4.5 815.44 6.6 812.76 8.7 809.31 8.7L809.31 8.7Q808.01 8.7 807.21 8.45L807.21 8.45 807.21 4.9Q807.96 5.1 808.91 5.1L808.91 5.1Q813.96 5.1 816.06-0.65L816.06-0.65 805.81-25.35 810.26-25.35 813.56-17 818.01-5.5Q818.41-6.8 822.01-17L822.01-17 824.96-25.35 829.21-25.35ZM930.81-3.05L930.81-3.05Q933.51-3.05 935.11-4.58 936.71-6.1 936.71-8.45L936.71-8.45 936.71-11.7 932.31-11.7Q929.11-11.7 927.51-10.45 925.91-9.2 925.91-7.3 925.91-5.4 927.16-4.23 928.41-3.05 930.81-3.05ZM936.76 0L936.76-3Q934.81 0.25 929.66 0.25L929.66 0.25Q926.11 0.25 923.93-1.85 921.76-3.95 921.76-7.15L921.76-7.15Q921.76-10.8 924.53-12.83 927.31-14.85 932.11-14.85L932.11-14.85 936.71-14.85 936.71-16.15Q936.71-19.15 935.36-20.68 934.01-22.2 930.81-22.2L930.81-22.2Q926.76-22.2 923.61-20.05L923.61-20.05 923.61-24Q926.46-25.75 931.11-25.75L931.11-25.75Q940.66-25.75 940.66-16.05L940.66-16.05 940.66 0 936.76 0ZM1006.68-17.45L1006.68 0 1002.73 0 1002.73-16.4Q1002.73-19.2 1001.31-20.68 999.88-22.15 997.58-22.15L997.58-22.15Q994.73-22.15 992.66-19.95 990.58-17.75 990.58-13.85L990.58-13.85 990.58 0 986.68 0 986.68-25.35 990.58-25.35 990.58-20.95Q992.83-25.7 998.58-25.7L998.58-25.7Q1002.28-25.7 1004.48-23.45 1006.68-21.2 1006.68-17.45L1006.68-17.45ZM1055.31-12.4L1055.31-12.4Q1055.31-8.3 1057.31-5.75 1059.31-3.2 1062.36-3.2L1062.36-3.2Q1065.46-3.2 1067.63-5.5 1069.81-7.8 1069.81-12.85L1069.81-12.85Q1069.81-17.65 1067.56-19.9 1065.31-22.15 1062.61-22.15L1062.61-22.15Q1059.46-22.15 1057.38-19.63 1055.31-17.1 1055.31-12.4ZM1073.76-35.35L1073.76 0 1069.81 0 1069.81-3.75Q1067.11 0.4 1062.01 0.4L1062.01 0.4Q1056.96 0.4 1054.08-3.35 1051.21-7.1 1051.21-12.45L1051.21-12.45Q1051.21-18.4 1054.26-22.08 1057.31-25.75 1062.11-25.75L1062.11-25.75Q1067.06-25.75 1069.81-21.5L1069.81-21.5 1069.81-35.35 1073.76-35.35ZM1204.31-17.4L1204.31 0 1200.36 0 1200.36-16.4Q1200.36-22.15 1195.51-22.15L1195.51-22.15Q1193.11-22.15 1191.21-19.98 1189.31-17.8 1189.31-13.85L1189.31-13.85 1189.31 0 1185.36 0 1185.36-16.4Q1185.36-22.15 1180.51-22.15L1180.51-22.15Q1178.11-22.15 1176.21-19.98 1174.31-17.8 1174.31-13.85L1174.31-13.85 1174.31 0 1170.41 0 1170.41-25.35 1174.31-25.35 1174.31-21.25Q1176.41-25.7 1181.46-25.7L1181.46-25.7Q1187.31-25.7 1188.86-20.75L1188.86-20.75Q1189.96-23.15 1191.93-24.43 1193.91-25.7 1196.36-25.7L1196.36-25.7Q1200.31-25.7 1202.31-23.45 1204.31-21.2 1204.31-17.4L1204.31-17.4ZM1254.48-25.35L1254.48 0 1250.53 0 1250.53-25.35 1254.48-25.35ZM1254.33-35.15Q1255.08-34.4 1255.08-33.3 1255.08-32.2 1254.33-31.48 1253.58-30.75 1252.48-30.75 1251.38-30.75 1250.65-31.48 1249.93-32.2 1249.93-33.3 1249.93-34.4 1250.65-35.15 1251.38-35.9 1252.48-35.9 1253.58-35.9 1254.33-35.15ZM1321-17.45L1321 0 1317.05 0 1317.05-16.4Q1317.05-19.2 1315.63-20.68 1314.2-22.15 1311.9-22.15L1311.9-22.15Q1309.05-22.15 1306.98-19.95 1304.9-17.75 1304.9-13.85L1304.9-13.85 1304.9 0 1301 0 1301-25.35 1304.9-25.35 1304.9-20.95Q1307.15-25.7 1312.9-25.7L1312.9-25.7Q1316.6-25.7 1318.8-23.45 1321-21.2 1321-17.45L1321-17.45ZM1369.63-12.4L1369.63-12.4Q1369.63-8.3 1371.63-5.75 1373.63-3.2 1376.68-3.2L1376.68-3.2Q1379.78-3.2 1381.95-5.5 1384.13-7.8 1384.13-12.85L1384.13-12.85Q1384.13-17.65 1381.88-19.9 1379.63-22.15 1376.93-22.15L1376.93-22.15Q1373.78-22.15 1371.7-19.63 1369.63-17.1 1369.63-12.4ZM1388.08-35.35L1388.08 0 1384.13 0 1384.13-3.75Q1381.43 0.4 1376.33 0.4L1376.33 0.4Q1371.28 0.4 1368.4-3.35 1365.53-7.1 1365.53-12.45L1365.53-12.45Q1365.53-18.4 1368.58-22.08 1371.63-25.75 1376.43-25.75L1376.43-25.75Q1381.38-25.75 1384.13-21.5L1384.13-21.5 1384.13-35.35 1388.08-35.35Z" opacity="1" transform="matrix(1,0,0,1,0,0)" fill="#e65728" class="undefined-text-1" data-fill-palette-color="secondary" id="text-1"></path></svg></g></svg></g></svg></g></svg></g><g transform="matrix(1,0,0,1,83.79889654379588,0)"><svg viewBox="0 0 24.402206912408253 24.402142497923247" height="24.402142497923247" width="24.402206912408253"><g><svg xmlns="http://www.w3.org/2000/svg" xmlns:xlink="http://www.w3.org/1999/xlink" version="1.1" x="0" y="0" viewBox="18.999664306640625 19 474.0012512207031 474" style="enable-background:new 0 0 512 512;" xml:space="preserve" height="24.402142497923247" width="24.402206912408253" class="icon-icon-0" data-fill-palette-color="accent" id="icon-0"><g fill="#e65728" data-fill-palette-color="accent"><g fill="#e65728" data-fill-palette-color="accent"><g fill="#e65728" data-fill-palette-color="accent"><path d="M255.986 493c-1.694 0-3.387-0.612-4.722-1.832-0.583-0.532-58.908-53.999-116.241-122.18C57.338 276.605 18.306 202.447 19.009 148.576c0.455-34.777 15.027-67.362 41.034-91.751C86.052 32.433 120.636 19 157.424 19c37.1 0 72.611 14.01 98.562 38.666C281.937 33.01 317.448 19 354.548 19c39.244 0 76.899 15.543 103.31 42.644 23.467 24.081 35.934 55.05 35.104 87.203-1.402 54.281-40.895 128.347-117.38 220.141-56.656 67.995-112.472 119.953-114.82 122.132-0.061 0.057-0.122 0.111-0.182 0.163C259.261 492.429 257.623 493 255.986 493zM157.424 33C89.655 33 33.842 84.929 33.008 148.758c-1.455 111.368 190.11 296.708 222.954 327.647 14.783-14.065 61.499-59.535 108.863-116.38 73.371-88.056 112.84-161.205 114.14-211.54 0.732-28.346-10.324-55.717-31.134-77.07C424.04 47.001 390.039 33 354.548 33c-35.736 0-69.792 14.34-93.442 39.348-1.189 1.277-2.825 2.072-4.59 2.207-2.095 0.156-4.167-0.638-5.618-2.172C227.247 47.354 193.177 33 157.424 33z" fill="#e65728" data-fill-palette-color="accent"></path></g><g fill="#e65728" data-fill-palette-color="accent"><path d="M201.475 333c-13.748 0-26.673-5.354-36.395-15.074 0 0 0 0 0-0.001-20.067-20.067-20.067-52.72 0-72.789L275.136 135.08c20.068-20.068 52.721-20.066 72.789 0 9.722 9.721 15.075 22.646 15.075 36.395s-5.354 26.673-15.075 36.394L237.869 317.926C228.148 327.646 215.223 333 201.475 333zM174.979 308.025c7.077 7.077 16.486 10.975 26.495 10.975 10.008 0 19.418-3.897 26.495-10.974l110.056-110.057c7.077-7.077 10.975-16.486 10.975-26.495s-3.897-19.418-10.975-26.495c-14.609-14.608-38.381-14.609-52.99 0L174.979 255.036C160.371 269.646 160.371 293.417 174.979 308.025L174.979 308.025z" fill="#e65728" data-fill-palette-color="accent"></path></g><g fill="#e65728" data-fill-palette-color="accent"><path d="M311.531 332.976c-13.181 0-26.36-5.017-36.395-15.05L165.08 207.869c-20.068-20.067-20.068-52.72 0-72.789l0 0c20.067-20.068 52.72-20.069 72.789 0l110.057 110.056c20.067 20.068 20.067 52.72 0 72.789C337.892 327.959 324.711 332.976 311.531 332.976zM174.979 144.979c-14.609 14.609-14.609 38.381 0 52.99l110.057 110.056c14.609 14.609 38.382 14.609 52.989 0 14.609-14.609 14.609-38.381 0-52.99L227.969 144.979C213.36 130.37 189.589 130.371 174.979 144.979L174.979 144.979z" fill="#e65728" data-fill-palette-color="accent"></path></g></g></g></svg></g></svg></g><g></g></svg></g></svg></g></svg></g></svg></g></svg><rect width="320" height="360" fill="none" stroke="none" visibility="hidden"></rect></g></svg></g></svg>