<svg xmlns="http://www.w3.org/2000/svg" version="1.1" xmlns:xlink="http://www.w3.org/1999/xlink" xmlns:svgjs="http://svgjs.dev/svgjs" width="2000" height="2250" viewBox="0 0 2000 2250"><g transform="matrix(1,0,0,1,3.410605131648481e-13,0)"><svg viewBox="0 0 320 360" data-background-color="#ffffff" preserveAspectRatio="xMidYMid meet" height="2250" width="2000" xmlns="http://www.w3.org/2000/svg" xmlns:xlink="http://www.w3.org/1999/xlink"><defs></defs><g id="tight-bounds" transform="matrix(1,0,0,1,0,0)"><svg viewBox="0 0 320 360" height="360" width="320"><g><svg></svg></g><g><svg viewBox="0 0 320 360" height="360" width="320"><g><path d="M20.961 227.22l3.726 4.658-1.863-6.056c-0.466-2.795-3.726 0.466-1.863 1.398M25.153 224.425c1.397 2.329 2.795 4.658 2.795 6.987 0 3.261 2.795 4.658 5.123 5.589-3.261-3.726-5.124-13.974-7.918-12.576M204.017 26.929c7.918 0 15.371-0.932 23.756 0.931 20.495 5.124 37.729 15.371 49.374 29.811l32.606 52.169c1.397 13.042 4.192 27.482 3.726 43.319 3.261 0 2.795-4.658 6.521-5.59-3.726 9.316-5.59 20.961-6.521 34.469-2.329-7.453 0-18.632 0.466-24.687-3.261 5.124-5.124 1.397-5.124-0.932 0.466-3.726-1.397-3.261-2.795-4.658-5.124-4.658-8.384-9.782-12.11-17.7 2.329-6.055 2.795-14.905-4.658-19.563-2.329-1.397-5.124-3.726-6.521-7.453-1.863-5.124-5.124-11.179-4.193-19.097 0.466-2.329-6.987 5.124-11.179 1.863-18.166-12.576-36.332-27.016-58.224-39.127-11.645 0-20.029-4.192-24.221-9.316-3.726-4.658-0.932-10.713 4.658-11.179 3.261 0 6.987-0.932 9.782 0.932 0.466-1.863 2.329-4.192 4.657-4.192M157.904 16.215l0.932 0.466c4.658 0.932 6.987 7.453 12.11 5.124 0 3.261 0.466 6.521-0.466 8.85-1.397 3.726-5.59 3.726-8.85 3.726-31.208-1.863-49.374 11.179-68.471 22.358-5.124 3.261-10.713 5.59-14.906 9.782-20.029 18.632-41.921 35.866-47.045 70.335l-4.192 38.195c-0.466 4.192-5.124 8.384-4.192 13.508l3.26 22.824c-3.261-3.261-5.124 0.932-4.192 2.795 0.466 1.397 2.329 6.055 5.124 1.863 3.726 6.987 7.453 20.495 12.576 26.55 15.837 18.632 36.332 35.4 53.101 52.169 4.192-0.932 7.453-0.932 8.384-3.727 1.397 2.795-1.397 5.59-3.726 6.056 7.453 4.658 15.837 8.85 27.016 9.781 14.44 0.932 27.948 3.261 40.524 6.522 6.521-1.863 13.042-2.795 20.029-3.261 2.329 0 3.726-3.726 6.521-4.658l0.466-4.658c2.795 4.192 2.329-1.397 0.466-4.192 3.261 2.795 4.192 5.124 5.589 6.987 0-1.397 3.726-6.521 3.727-0.466l0.931-6.055c1.397-0.932 1.863 5.124 3.261 0.931 1.397-4.192 4.192-0.932 6.987-2.329-0.932 1.863-0.466 5.59 2.794 3.261l3.727-3.261c2.329 5.59 6.055 3.261 7.918 2.329 20.495-13.042 40.99-28.413 60.553-43.784l-0.466 6.055 2.329-7.453c2.329 2.329 4.192 0.466 5.124-0.931 2.795-4.658 6.521-9.316 12.577-13.508-7.453 20.029-16.303 35.866-27.482 48.908l-4.658 5.59c0 3.261-0.932 7.453-4.658 7.918-1.863 0.466-5.59-0.932-8.384 1.863-1.397 1.863 3.261 5.59-0.466 2.795-3.261-2.329-6.521 0-10.248 0.932-2.795 0.932 1.863 3.726 2.795 5.589 0.932 1.863 1.863 3.726 1.398 6.056l-5.124-5.59c-6.055 3.261-9.782 9.316-14.906 13.974-2.329 1.863-1.397 5.124-1.397 7.918-3.261 0-6.987-0.932-8.85 0.932-1.397 1.863-0.932 4.658-0.932 7.453-4.658-0.466-5.124-7.453-9.315-6.056-4.192 0.932-8.85 1.397-12.577 3.727 2.795 5.59-4.658 2.329-3.726 3.26-6.987-4.192-13.042-7.453-20.495-4.658-15.837-5.124-35.4-2.795-49.84-0.931 0-2.329 0.466-4.658-0.466-5.124-0.932 2.329-3.726 1.397-3.26 1.397-8.85-6.055-17.7-9.782-27.016-14.905-8.384 0.932-16.303-3.261-18.632-5.59-6.521-6.055-13.974-2.795-20.029-4.192-13.042-3.261-17.7-16.769-19.098-26.084-0.932-4.658-4.658-6.521-6.055-6.056-6.055-19.563-15.371-37.263-22.824-55.429-1.863-4.658-1.397-9.316-1.397-14.44 2.329 0.932 4.658 0.466 4.192-2.794-2.329-15.371-7.918-27.016-13.974-38.195 3.261-15.837 3.726-34.469 11.179-48.443 6.521-12.576 18.632-19.098 27.016-29.811 2.795-3.726 2.795-8.85 5.59-12.11 9.316-9.316 18.632-19.098 28.879-27.482 4.658-3.726 10.247 0 17.234-1.397 2.329-8.384 11.645-15.837 20.495-13.508 3.726 0.932 11.179-8.85 13.508-9.782 3.726-1.397 1.863 3.726 1.863 6.987 8.85-6.987 20.961-10.713 32.14-14.906" fill="#e65728" data-fill-palette-color="tertiary"></path></g><g transform="matrix(1,0,0,1,81.68746569168022,90)"><svg viewBox="0 0 156.62506861663957 180" height="180" width="156.62506861663957"><g><svg viewBox="0 0 156.62506861663957 180" height="180" width="156.62506861663957"><g><svg viewBox="0 0 192 220.65433270193893" height="180" width="156.62506861663957"><g transform="matrix(1,0,0,1,0,101.7409811514854)"><svg viewBox="0 0 192 118.91335155045354" height="118.91335155045354" width="192"><g><svg viewBox="0 0 192 118.91335155045354" height="118.91335155045354" width="192"><g><svg viewBox="0 0 192 97.7323640934325" height="97.7323640934325" width="192"><g transform="matrix(1,0,0,1,0,0)"><svg width="192" viewBox="119.23 -35.55 233.07999999999998 115.14" height="97.7323640934325" data-palette-color="#e65728"><svg></svg><svg></svg><svg></svg><g class="undefined-text-0" data-fill-palette-color="primary" id="text-0"><path d="M182.74-35.55v35.55h-8.52v-14.84h-12.63v14.84h-8.56v-35.55h8.56v14.11h12.63v-14.11zM210.86 0l-2.07-6.64h-11.75l-2.05 6.64h-9.15l13.04-35.55h8.05l13.14 35.55zM202.9-25.59l-3.81 12.33h7.65zM225.44-35.55l6.57 15.43 6.54-15.43h9.25l-11.45 22.78v12.77h-8.69v-12.77l-11.43-22.78zM268.99 0l-2.07-6.64h-11.75l-2.05 6.64h-9.15l13.04-35.55h8.05l13.14 35.55zM261.03-25.59l-3.81 12.33h7.65zM305.76-35.55v6.62h-10.67v28.93h-8.57v-28.93h-10.47v-6.62zM318.5-35.55v35.55h-8.54v-35.55z" data-fill-palette-color="primary" fill="#e65728" opacity="1"></path><path d="M147.11 4h11.25l7.94 24.73 7.91-24.73h11.27v35.55h-8.59v-8.3l0.83-16.99-8.59 25.29h-5.67l-8.62-25.32 0.83 17.02v8.3h-8.56zM221.03 20.87v1.64c0 3.467-0.643 6.533-1.93 9.2-1.287 2.673-3.113 4.73-5.48 6.17-2.367 1.44-5.063 2.16-8.09 2.16-3.027 0-5.713-0.697-8.06-2.09-2.34-1.393-4.167-3.383-5.48-5.97-1.307-2.587-1.993-5.557-2.06-8.91v0-2c0-3.487 0.637-6.56 1.91-9.22 1.28-2.66 3.113-4.713 5.5-6.16 2.38-1.453 5.093-2.18 8.14-2.18v0c3.013 0 5.7 0.717 8.06 2.15 2.36 1.433 4.193 3.473 5.5 6.12 1.313 2.647 1.977 5.677 1.99 9.09zM212.32 22.66v-1.64c0-3.533-0.59-6.213-1.77-8.04-1.18-1.833-2.87-2.75-5.07-2.75v0c-4.3 0-6.57 3.223-6.81 9.67v0l-0.03 2.61c0 3.48 0.58 6.157 1.74 8.03 1.153 1.873 2.87 2.81 5.15 2.81v0c2.167 0 3.833-0.92 5-2.76 1.173-1.84 1.77-4.483 1.79-7.93zM239.88 39.55h-14.43v-35.55h12.77c4.573 0 8.053 0.84 10.44 2.52 2.38 1.673 3.57 4.107 3.57 7.3v0c0 1.84-0.423 3.41-1.27 4.71-0.847 1.3-2.09 2.26-3.73 2.88v0c1.853 0.487 3.277 1.397 4.27 2.73 0.993 1.34 1.49 2.97 1.49 4.89v0c0 3.48-1.103 6.097-3.31 7.85-2.207 1.747-5.473 2.637-9.8 2.67zM240.03 24.44h-6.01v8.52h5.61c1.547 0 2.737-0.353 3.57-1.06 0.827-0.713 1.24-1.71 1.24-2.99v0c0-2.967-1.47-4.457-4.41-4.47zM234.02 10.62v8.2h4.47c1.873-0.013 3.207-0.353 4-1.02 0.8-0.667 1.2-1.653 1.2-2.96v0c0-1.493-0.433-2.57-1.3-3.23-0.86-0.66-2.25-0.99-4.17-0.99v0zM266.83 4v35.55h-8.54v-35.55zM281.36 4v28.96h14.92v6.59h-23.49v-35.55zM321.93 18.11v6.38h-13.47v8.47h15.92v6.59h-24.49v-35.55h24.53v6.62h-15.96v7.49z" data-fill-palette-color="primary" fill="#e65728" opacity="1"></path><path d="M119.23 43.55h11.25l7.94 24.73 7.91-24.73h11.27v35.55h-8.59v-8.3l0.83-16.99-8.59 25.29h-5.67l-8.62-25.32 0.83 17.02v8.3h-8.56zM185.75 79.1l-2.07-6.64h-11.74l-2.06 6.64h-9.15l13.04-35.55h8.05l13.14 35.55zM177.79 53.51l-3.8 12.33h7.64zM215.88 69.65v0c0-1.253-0.443-2.23-1.33-2.93-0.887-0.7-2.447-1.423-4.68-2.17-2.227-0.747-4.047-1.47-5.46-2.17v0c-4.607-2.267-6.91-5.377-6.91-9.33v0c0-1.967 0.573-3.703 1.72-5.21 1.147-1.507 2.77-2.68 4.87-3.52 2.1-0.84 4.46-1.26 7.08-1.26v0c2.553 0 4.843 0.457 6.87 1.37 2.027 0.913 3.603 2.213 4.73 3.9 1.12 1.68 1.68 3.603 1.68 5.77v0h-8.54c0-1.447-0.447-2.57-1.34-3.37-0.887-0.8-2.087-1.2-3.6-1.2v0c-1.527 0-2.733 0.34-3.62 1.02-0.887 0.673-1.33 1.53-1.33 2.57v0c0 0.913 0.487 1.74 1.46 2.48 0.98 0.74 2.697 1.507 5.15 2.3 2.46 0.787 4.48 1.637 6.06 2.55v0c3.84 2.213 5.76 5.263 5.76 9.15v0c0 3.113-1.173 5.557-3.52 7.33-2.34 1.773-5.553 2.66-9.64 2.66v0c-2.88 0-5.487-0.517-7.82-1.55-2.34-1.033-4.1-2.45-5.28-4.25-1.18-1.8-1.77-3.87-1.77-6.21v0h8.6c0 1.9 0.49 3.303 1.47 4.21 0.987 0.9 2.587 1.35 4.8 1.35v0c1.42 0 2.54-0.303 3.36-0.91 0.82-0.613 1.23-1.473 1.23-2.58zM247.18 69.65v0c0-1.253-0.443-2.23-1.33-2.93-0.887-0.7-2.447-1.423-4.68-2.17-2.227-0.747-4.047-1.47-5.46-2.17v0c-4.607-2.267-6.91-5.377-6.91-9.33v0c0-1.967 0.573-3.703 1.72-5.21 1.147-1.507 2.77-2.68 4.87-3.52 2.1-0.84 4.46-1.26 7.08-1.26v0c2.553 0 4.843 0.457 6.87 1.37 2.027 0.913 3.6 2.213 4.72 3.9 1.127 1.68 1.69 3.603 1.69 5.77v0h-8.55c0-1.447-0.443-2.57-1.33-3.37-0.887-0.8-2.087-1.2-3.6-1.2v0c-1.527 0-2.733 0.34-3.62 1.02-0.887 0.673-1.33 1.53-1.33 2.57v0c0 0.913 0.487 1.74 1.46 2.48 0.98 0.74 2.697 1.507 5.15 2.3 2.46 0.787 4.48 1.637 6.06 2.55v0c3.84 2.213 5.76 5.263 5.76 9.15v0c0 3.113-1.173 5.557-3.52 7.33-2.34 1.773-5.553 2.66-9.64 2.66v0c-2.88 0-5.487-0.517-7.82-1.55-2.34-1.033-4.1-2.45-5.28-4.25-1.18-1.8-1.77-3.87-1.77-6.21v0h8.6c0 1.9 0.49 3.303 1.47 4.21 0.987 0.9 2.587 1.35 4.8 1.35v0c1.413 0 2.533-0.303 3.36-0.91 0.82-0.613 1.23-1.473 1.23-2.58zM282.41 79.1l-2.08-6.64h-11.74l-2.05 6.64h-9.16l13.04-35.55h8.06l13.13 35.55zM274.45 53.51l-3.81 12.33h7.64zM322.79 60.11v14.6c-1.32 1.46-3.25 2.64-5.79 3.54-2.533 0.893-5.317 1.34-8.35 1.34v0c-4.653 0-8.37-1.423-11.15-4.27-2.787-2.853-4.277-6.817-4.47-11.89v0l-0.03-3.08c0-3.5 0.62-6.557 1.86-9.17 1.24-2.613 3.01-4.623 5.31-6.03 2.3-1.407 4.967-2.11 8-2.11v0c4.427 0 7.863 1.013 10.31 3.04 2.453 2.027 3.883 5.05 4.29 9.07v0h-8.26c-0.293-1.987-0.927-3.403-1.9-4.25-0.98-0.847-2.363-1.27-4.15-1.27v0c-2.147 0-3.807 0.913-4.98 2.74-1.173 1.82-1.767 4.423-1.78 7.81v0 2.15c0 3.547 0.607 6.21 1.82 7.99 1.207 1.787 3.113 2.68 5.72 2.68v0c2.227 0 3.887-0.497 4.98-1.49v0-5.52h-5.96v-5.88zM349.82 57.66v6.38h-13.48v8.47h15.92v6.59h-24.49v-35.55h24.54v6.62h-15.97v7.49z" data-fill-palette-color="primary" fill="#e65728" opacity="1"></path></g></svg></g></svg></g><g transform="matrix(1,0,0,1,0,102.12558288216194)"><svg viewBox="0 0 192 16.7877686682916" height="16.7877686682916" width="192"><g transform="matrix(1,0,0,1,0,0)"><svg width="192" viewBox="3.17 -37.5 550.85 48.17" height="16.7877686682916" data-palette-color="#e65728"><path d="M32.1-35.55L32.1 0 24.78 0 24.78-15.23 10.5-15.23 10.5 0 3.17 0 3.17-35.55 10.5-35.55 10.5-21.14 24.78-21.14 24.78-35.55 32.1-35.55ZM50.19 0.49L50.19 0.49Q44.38 0.49 40.73-3.08 37.08-6.64 37.08-12.57L37.08-12.57 37.08-13.26Q37.08-17.24 38.62-20.37 40.16-23.51 42.98-25.21 45.8-26.9 49.41-26.9L49.41-26.9Q54.83-26.9 57.94-23.49 61.06-20.07 61.06-13.79L61.06-13.79 61.06-10.91 44.24-10.91Q44.58-8.33 46.3-6.76 48.02-5.2 50.66-5.2L50.66-5.2Q54.73-5.2 57.03-8.15L57.03-8.15 60.5-4.27Q58.91-2.03 56.2-0.77 53.49 0.49 50.19 0.49ZM49.39-21.19L49.39-21.19Q47.29-21.19 45.98-19.78 44.68-18.36 44.31-15.72L44.31-15.72 54.12-15.72 54.12-16.28Q54.07-18.63 52.85-19.91 51.63-21.19 49.39-21.19ZM87.5 0L80.37 0Q79.88-0.95 79.66-2.37L79.66-2.37Q77.09 0.49 72.99 0.49L72.99 0.49Q69.11 0.49 66.56-1.76 64.01-4 64.01-7.42L64.01-7.42Q64.01-11.62 67.12-13.87 70.23-16.11 76.12-16.14L76.12-16.14 79.37-16.14 79.37-17.65Q79.37-19.48 78.43-20.58 77.49-21.68 75.46-21.68L75.46-21.68Q73.68-21.68 72.66-20.83 71.65-19.97 71.65-18.48L71.65-18.48 64.59-18.48Q64.59-20.78 66.01-22.73 67.43-24.68 70.01-25.79 72.6-26.9 75.83-26.9L75.83-26.9Q80.71-26.9 83.58-24.45 86.45-22 86.45-17.55L86.45-17.55 86.45-6.1Q86.47-2.34 87.5-0.42L87.5-0.42 87.5 0ZM74.53-4.91L74.53-4.91Q76.09-4.91 77.41-5.6 78.73-6.3 79.37-7.47L79.37-7.47 79.37-12.01 76.73-12.01Q71.43-12.01 71.09-8.35L71.09-8.35 71.06-7.93Q71.06-6.62 71.99-5.76 72.92-4.91 74.53-4.91ZM99.31-37.5L99.31 0 92.23 0 92.23-37.5 99.31-37.5ZM122.52-26.42L127.43-9.99 132.31-26.42 139.88-26.42 129.26 4.1 128.67 5.49Q126.31 10.67 120.86 10.67L120.86 10.67Q119.32 10.67 117.74 10.21L117.74 10.21 117.74 4.86 118.81 4.88Q120.81 4.88 121.8 4.27 122.79 3.66 123.35 2.25L123.35 2.25 124.18 0.07 114.93-26.42 122.52-26.42ZM141.2-13.13L141.2-13.45Q141.2-17.38 142.71-20.46 144.22-23.54 147.07-25.22 149.91-26.9 153.67-26.9L153.67-26.9Q159.02-26.9 162.4-23.63 165.78-20.36 166.17-14.75L166.17-14.75 166.22-12.94Q166.22-6.86 162.83-3.19 159.43 0.49 153.72 0.49 148.01 0.49 144.6-3.17 141.2-6.84 141.2-13.13L141.2-13.13ZM148.25-12.94L148.25-12.94Q148.25-9.18 149.67-7.19 151.08-5.2 153.72-5.2L153.72-5.2Q156.28-5.2 157.72-7.17 159.16-9.13 159.16-13.45L159.16-13.45Q159.16-17.14 157.72-19.17 156.28-21.19 153.67-21.19L153.67-21.19Q151.08-21.19 149.67-19.18 148.25-17.16 148.25-12.94ZM186.58 0L186.38-2.69Q183.77 0.49 179.16 0.49L179.16 0.49Q174.91 0.49 172.68-1.95 170.44-4.39 170.39-9.11L170.39-9.11 170.39-26.42 177.45-26.42 177.45-9.35Q177.45-5.22 181.21-5.22L181.21-5.22Q184.8-5.22 186.14-7.71L186.14-7.71 186.14-26.42 193.22-26.42 193.22 0 186.58 0ZM213.48-26.59L213.38-19.8Q211.94-20 210.84-20L210.84-20Q206.84-20 205.6-17.29L205.6-17.29 205.6 0 198.54 0 198.54-26.42 205.2-26.42 205.4-23.27Q207.52-26.9 211.28-26.9L211.28-26.9Q212.46-26.9 213.48-26.59L213.48-26.59ZM253.03-13.35L253.03-12.96Q253.03-6.62 250.32-3.06 247.61 0.49 242.75 0.49L242.75 0.49Q238.45 0.49 235.89-2.81L235.89-2.81 235.57 0 229.22 0 229.22-37.5 236.28-37.5 236.28-24.05Q238.72-26.9 242.7-26.9L242.7-26.9Q247.53-26.9 250.28-23.35 253.03-19.8 253.03-13.35L253.03-13.35ZM245.97-13.48L245.97-13.48Q245.97-17.48 244.7-19.32 243.43-21.17 240.92-21.17L240.92-21.17Q237.55-21.17 236.28-18.41L236.28-18.41 236.28-7.98Q237.57-5.2 240.97-5.2L240.97-5.2Q244.38-5.2 245.46-8.57L245.46-8.57Q245.97-10.18 245.97-13.48ZM256.27-13.13L256.27-13.45Q256.27-17.38 257.79-20.46 259.3-23.54 262.14-25.22 264.99-26.9 268.75-26.9L268.75-26.9Q274.09-26.9 277.47-23.63 280.86-20.36 281.25-14.75L281.25-14.75 281.3-12.94Q281.3-6.86 277.9-3.19 274.51 0.49 268.8 0.49 263.08 0.49 259.68-3.17 256.27-6.84 256.27-13.13L256.27-13.13ZM263.33-12.94L263.33-12.94Q263.33-9.18 264.74-7.19 266.16-5.2 268.8-5.2L268.8-5.2Q271.36-5.2 272.8-7.17 274.24-9.13 274.24-13.45L274.24-13.45Q274.24-17.14 272.8-19.17 271.36-21.19 268.75-21.19L268.75-21.19Q266.16-21.19 264.74-19.18 263.33-17.16 263.33-12.94ZM284.54-13.4L284.54-13.4Q284.54-19.58 287.31-23.24 290.08-26.9 294.89-26.9L294.89-26.9Q298.75-26.9 301.26-24.02L301.26-24.02 301.26-37.5 308.34-37.5 308.34 0 301.97 0 301.63-2.81Q298.99 0.49 294.84 0.49L294.84 0.49Q290.18 0.49 287.36-3.19 284.54-6.86 284.54-13.4ZM291.6-12.89L291.6-12.89Q291.6-9.18 292.89-7.2 294.18-5.22 296.65-5.22L296.65-5.22Q299.92-5.22 301.26-7.98L301.26-7.98 301.26-18.41Q299.95-21.17 296.7-21.17L296.7-21.17Q291.6-21.17 291.6-12.89ZM318.77-26.42L323.67-9.99 328.56-26.42 336.12-26.42 325.5 4.1 324.92 5.49Q322.55 10.67 317.11 10.67L317.11 10.67Q315.57 10.67 313.98 10.21L313.98 10.21 313.98 4.86 315.06 4.88Q317.06 4.88 318.05 4.27 319.03 3.66 319.6 2.25L319.6 2.25 320.43 0.07 311.17-26.42 318.77-26.42ZM373.79 0L366.66 0Q366.17-0.95 365.95-2.37L365.95-2.37Q363.39 0.49 359.29 0.49L359.29 0.49Q355.41 0.49 352.86-1.76 350.3-4 350.3-7.42L350.3-7.42Q350.3-11.62 353.42-13.87 356.53-16.11 362.41-16.14L362.41-16.14 365.66-16.14 365.66-17.65Q365.66-19.48 364.72-20.58 363.78-21.68 361.75-21.68L361.75-21.68Q359.97-21.68 358.96-20.83 357.95-19.97 357.95-18.48L357.95-18.48 350.89-18.48Q350.89-20.78 352.31-22.73 353.72-24.68 356.31-25.79 358.9-26.9 362.12-26.9L362.12-26.9Q367-26.9 369.87-24.45 372.74-22 372.74-17.55L372.74-17.55 372.74-6.1Q372.77-2.34 373.79-0.42L373.79-0.42 373.79 0ZM360.83-4.91L360.83-4.91Q362.39-4.91 363.71-5.6 365.03-6.3 365.66-7.47L365.66-7.47 365.66-12.01 363.02-12.01Q357.73-12.01 357.38-8.35L357.38-8.35 357.36-7.93Q357.36-6.62 358.29-5.76 359.22-4.91 360.83-4.91ZM378.01-26.42L384.65-26.42 384.87-23.36Q387.7-26.9 392.46-26.9L392.46-26.9Q396.66-26.9 398.71-24.44 400.77-21.97 400.81-17.07L400.81-17.07 400.81 0 393.76 0 393.76-16.89Q393.76-19.14 392.78-20.15 391.81-21.17 389.54-21.17L389.54-21.17Q386.56-21.17 385.07-18.63L385.07-18.63 385.07 0 378.01 0 378.01-26.42ZM405.06-13.4L405.06-13.4Q405.06-19.58 407.83-23.24 410.6-26.9 415.41-26.9L415.41-26.9Q419.27-26.9 421.78-24.02L421.78-24.02 421.78-37.5 428.86-37.5 428.86 0 422.49 0 422.15-2.81Q419.51 0.49 415.36 0.49L415.36 0.49Q410.7 0.49 407.88-3.19 405.06-6.86 405.06-13.4ZM412.12-12.89L412.12-12.89Q412.12-9.18 413.41-7.2 414.7-5.22 417.17-5.22L417.17-5.22Q420.44-5.22 421.78-7.98L421.78-7.98 421.78-18.41Q420.47-21.17 417.22-21.17L417.22-21.17Q412.12-21.17 412.12-12.89ZM446.78-26.42L453.39-26.42 453.61-23.46Q456.42-26.9 461.21-26.9L461.21-26.9Q466.31-26.9 468.21-22.88L468.21-22.88Q471-26.9 476.15-26.9L476.15-26.9Q480.45-26.9 482.55-24.4 484.64-21.9 484.64-16.87L484.64-16.87 484.64 0 477.56 0 477.56-16.85Q477.56-19.09 476.69-20.13 475.81-21.17 473.59-21.17L473.59-21.17Q470.41-21.17 469.19-18.14L469.19-18.14 469.22 0 462.16 0 462.16-16.82Q462.16-19.12 461.26-20.14 460.35-21.17 458.18-21.17L458.18-21.17Q455.18-21.17 453.83-18.68L453.83-18.68 453.83 0 446.78 0 446.78-26.42ZM497.51-26.42L497.51 0 490.43 0 490.43-26.42 497.51-26.42ZM490.01-33.25L490.01-33.25Q490.01-34.84 491.08-35.86 492.14-36.89 493.97-36.89L493.97-36.89Q495.78-36.89 496.85-35.86 497.92-34.84 497.92-33.25L497.92-33.25Q497.92-31.64 496.84-30.62 495.75-29.59 493.97-29.59 492.19-29.59 491.1-30.62 490.01-31.64 490.01-33.25ZM503.17-26.42L509.81-26.42 510.03-23.36Q512.86-26.9 517.62-26.9L517.62-26.9Q521.82-26.9 523.87-24.44 525.92-21.97 525.97-17.07L525.97-17.07 525.97 0 518.92 0 518.92-16.89Q518.92-19.14 517.94-20.15 516.96-21.17 514.69-21.17L514.69-21.17Q511.72-21.17 510.23-18.63L510.23-18.63 510.23 0 503.17 0 503.17-26.42ZM530.22-13.4L530.22-13.4Q530.22-19.58 532.99-23.24 535.76-26.9 540.57-26.9L540.57-26.9Q544.43-26.9 546.94-24.02L546.94-24.02 546.94-37.5 554.02-37.5 554.02 0 547.65 0 547.31-2.81Q544.67 0.49 540.52 0.49L540.52 0.49Q535.86 0.49 533.04-3.19 530.22-6.86 530.22-13.4ZM537.27-12.89L537.27-12.89Q537.27-9.18 538.57-7.2 539.86-5.22 542.33-5.22L542.33-5.22Q545.6-5.22 546.94-7.98L546.94-7.98 546.94-18.41Q545.62-21.17 542.38-21.17L542.38-21.17Q537.27-21.17 537.27-12.89Z" opacity="1" transform="matrix(1,0,0,1,0,0)" fill="#e65728" class="undefined-text-1" data-fill-palette-color="secondary" id="text-1"></path></svg></g></svg></g></svg></g></svg></g><g transform="matrix(1,0,0,1,36.672000000000004,0)"><svg viewBox="0 0 118.65599999999999 97.34776236275596" height="97.34776236275596" width="118.65599999999999"><g><svg xmlns="http://www.w3.org/2000/svg" xmlns:xlink="http://www.w3.org/1999/xlink" version="1.1" x="0" y="0" viewBox="4.91677491996892 13.011000000000001 90.16722508003109 73.97499999999997" style="enable-background:new 0 0 100 100;" xml:space="preserve" height="97.34776236275596" width="118.65599999999999" class="icon-icon-0" data-fill-palette-color="accent" id="icon-0"><g fill="#e65728" data-fill-palette-color="accent"><path d="M59.002 31.666c5.144 0 9.328-4.185 9.328-9.328 0-5.143-4.185-9.327-9.328-9.327-5.143 0-9.327 4.185-9.327 9.327C49.675 27.481 53.859 31.666 59.002 31.666zM59.002 15.304c3.88 0 7.036 3.155 7.036 7.034 0 3.88-3.156 7.035-7.036 7.035-3.879 0-7.035-3.155-7.035-7.035C51.967 18.459 55.123 15.304 59.002 15.304z" fill="#e65728" data-fill-palette-color="accent"></path><path d="M15.379 71.808c5.144 0 9.328-4.185 9.328-9.328s-4.185-9.327-9.328-9.327-9.328 4.184-9.328 9.327S10.235 71.808 15.379 71.808zM15.379 55.444c3.88 0 7.035 3.156 7.035 7.035s-3.155 7.036-7.035 7.036c-3.879 0-7.035-3.157-7.035-7.036S11.5 55.444 15.379 55.444z" fill="#e65728" data-fill-palette-color="accent"></path><path d="M40.418 59.354c0.606-0.184 0.948-0.824 0.765-1.43-0.396-1.308 0.205-2.701 1.429-3.313l9.361-4.68c0.179-0.089 0.33-0.224 0.441-0.39l6.972-10.458c0.064-0.097 0.14-0.195 0.226-0.292 0.042-0.048 0.08-0.1 0.113-0.153 0.741-1.199 1.889-2.101 3.23-2.537 3.134-1.021 6.514 0.699 7.533 3.83l7.163 22.16c0.157 0.485 0.606 0.794 1.091 0.794 0.116 0 0.235-0.019 0.353-0.056 0.603-0.195 0.933-0.841 0.738-1.443l-7.164-22.162c-1.412-4.336-6.087-6.715-10.423-5.304-1.828 0.596-3.395 1.813-4.421 3.433-0.128 0.15-0.245 0.306-0.349 0.461l-6.801 10.203-9.09 4.544c-2.226 1.113-3.318 3.648-2.598 6.028C39.172 59.194 39.812 59.537 40.418 59.354z" fill="#e65728" data-fill-palette-color="accent"></path><path d="M60.22 49.097c-0.436-0.061-0.866 0.135-1.109 0.5l-2.616 3.925c-0.27 0.405-0.643 0.733-1.078 0.951l-7.093 3.547c-0.566 0.283-0.796 0.972-0.513 1.538s0.972 0.796 1.538 0.513l7.092-3.547c0.792-0.396 1.47-0.993 1.962-1.73l1.304-1.957 2.562 7.871c0.157 0.484 0.606 0.792 1.09 0.792 0.117 0 0.237-0.019 0.354-0.057 0.603-0.196 0.932-0.843 0.735-1.444l-3.293-10.12C61.018 49.46 60.655 49.156 60.22 49.097z" fill="#e65728" data-fill-palette-color="accent"></path><path d="M93.938 80.174H35.762c-0.633 0-1.146 0.513-1.146 1.146 0 0.633 0.514 1.146 1.146 1.146h58.176c0.634 0 1.146-0.513 1.146-1.146C95.084 80.687 94.571 80.174 93.938 80.174z" fill="#e65728" data-fill-palette-color="accent"></path><path d="M89.136 76.344h0.03c0.028-0.001 0.057-0.002 0.085-0.004 0.062-0.003 0.123-0.009 0.186-0.014 0.013-0.001 0.025-0.002 0.038-0.004 0.004 0 0.009-0.001 0.014-0.001l0 0c0.07-0.007 0.141-0.016 0.205-0.025 0.023-0.003 0.047-0.007 0.07-0.011 0.061-0.01 0.12-0.02 0.18-0.031 0.012-0.002 0.023-0.005 0.035-0.007 0.004-0.001 0.007-0.002 0.011-0.002 0.052-0.011 0.104-0.022 0.155-0.035l0.031-0.007c0.008-0.002 0.016-0.004 0.023-0.006 0.024-0.006 0.049-0.012 0.055-0.014 0.053-0.015 0.105-0.029 0.158-0.045 0.029-0.008 0.059-0.018 0.092-0.027l0.122-0.041c0.015-0.005 0.026-0.009 0.041-0.015 0.026-0.009 0.053-0.018 0.062-0.021 0.025-0.009 0.051-0.02 0.076-0.029l0.019-0.007c0.016-0.006 0.032-0.013 0.048-0.019l0.187-0.081c0.006-0.002 0.013-0.005 0.019-0.008l0.1-0.047c0.008-0.003 0.016-0.007 0.022-0.011 0.032-0.015 0.063-0.031 0.093-0.048 0.041-0.021 0.08-0.04 0.11-0.057 0.027-0.015 0.054-0.03 0.093-0.053 0.004-0.002 0.024-0.014 0.028-0.017l0.086-0.05c0.031-0.019 0.063-0.038 0.097-0.061 0.045-0.028 0.091-0.059 0.123-0.081 0.021-0.014 0.041-0.028 0.076-0.054 0.006-0.004 0.012-0.009 0.019-0.013l0.098-0.071c0.006-0.004 0.013-0.009 0.019-0.013 0.031-0.024 0.063-0.05 0.105-0.084l0.057-0.045c0.037-0.03 0.074-0.063 0.111-0.095l0.008-0.008c0.028-0.023 0.056-0.047 0.095-0.083 0.036-0.034 0.072-0.068 0.099-0.095 0.023-0.021 0.046-0.044 0.068-0.066 0.038-0.038 0.073-0.076 0.109-0.115 0.018-0.018 0.032-0.033 0.04-0.042 0.048-0.051 0.093-0.104 0.138-0.158 0.001-0.001 0.002-0.002 0.003-0.003 0.008-0.009 0.016-0.018 0.022-0.027 0.044-0.052 0.086-0.105 0.127-0.16 0.013-0.017 0.025-0.033 0.038-0.051 0.034-0.046 0.067-0.093 0.101-0.141 0.011-0.015 0.021-0.031 0.032-0.047 0.037-0.054 0.073-0.111 0.108-0.169l0.02-0.03c0.03-0.048 0.059-0.099 0.095-0.164 0.012-0.021 0.023-0.04 0.034-0.061 0.026-0.049 0.052-0.099 0.073-0.142l0.04-0.08c0.012-0.025 0.023-0.051 0.035-0.077l0.013-0.027c0.007-0.014 0.013-0.027 0.019-0.041l0.01-0.022c0.01-0.022 0.02-0.046 0.029-0.068 0.011-0.026 0.021-0.055 0.037-0.093 0.014-0.035 0.027-0.071 0.042-0.108l0.013-0.034c0.009-0.025 0.018-0.052 0.029-0.086 0.018-0.051 0.034-0.103 0.05-0.154 0.006-0.019 0.011-0.035 0.013-0.044 0.003-0.009 0.005-0.017 0.008-0.025 0.018-0.062 0.035-0.124 0.049-0.182 0.005-0.021 0.011-0.044 0.016-0.066 0.015-0.06 0.027-0.118 0.039-0.18 0.006-0.024 0.01-0.051 0.015-0.076 0.011-0.059 0.02-0.116 0.028-0.175 0.004-0.024 0.007-0.049 0.01-0.075 0.008-0.055 0.014-0.111 0.02-0.167 0.004-0.033 0.007-0.067 0.009-0.104 0.001-0.011 0.002-0.021 0.003-0.032l0.009-0.137c0.002-0.044 0.003-0.089 0.003-0.135 0.001-0.029 0.002-0.059 0.002-0.088 0-0.013-0.001-0.027-0.001-0.042 0-0.058-0.002-0.114-0.005-0.172 0-0.004 0-0.008 0-0.011l-0.002-0.04c-0.003-0.07-0.009-0.14-0.015-0.209-0.001-0.005-0.001-0.01-0.002-0.016-0.001-0.017-0.003-0.034-0.005-0.052-0.006-0.058-0.014-0.116-0.021-0.168l-0.006-0.048c-0.002-0.015-0.004-0.03-0.007-0.045-0.009-0.052-0.018-0.103-0.027-0.154-0.004-0.022-0.008-0.043-0.012-0.063-0.002-0.012-0.005-0.022-0.007-0.034-0.011-0.048-0.021-0.094-0.033-0.141-0.007-0.031-0.015-0.063-0.023-0.098-0.012-0.044-0.024-0.088-0.041-0.144l-0.024-0.082c-0.009-0.031-0.02-0.063-0.03-0.095l-0.011-0.03c-0.016-0.046-0.031-0.092-0.044-0.125-0.013-0.036-0.027-0.071-0.042-0.106l-0.004-0.011c-0.017-0.042-0.033-0.084-0.051-0.125-0.008-0.019-0.016-0.037-0.024-0.055-0.001-0.002-0.01-0.021-0.011-0.023L93.6 69.138c-0.02-0.044-0.04-0.089-0.057-0.12l-0.015-0.029c-0.005-0.011-0.011-0.021-0.016-0.031l-0.014-0.026c-0.022-0.044-0.045-0.088-0.073-0.139l-0.022-0.039c-0.029-0.053-0.059-0.104-0.089-0.154-0.004-0.005-0.007-0.011-0.011-0.017l-0.016-0.024c-0.004-0.006-0.008-0.013-0.012-0.019-0.03-0.048-0.061-0.094-0.092-0.14-0.015-0.022-0.03-0.046-0.048-0.07-0.031-0.045-0.063-0.089-0.099-0.136-0.018-0.023-0.035-0.047-0.052-0.065-0.023-0.031-0.047-0.062-0.071-0.092l-0.014-0.017c-0.011-0.014-0.022-0.027-0.033-0.04l-0.077-0.088c-0.021-0.026-0.044-0.051-0.066-0.075-0.032-0.035-0.065-0.071-0.107-0.113-0.022-0.024-0.046-0.048-0.063-0.063-0.037-0.037-0.075-0.074-0.117-0.113-0.016-0.015-0.032-0.03-0.061-0.057-0.041-0.036-0.083-0.072-0.126-0.108-0.018-0.015-0.034-0.029-0.051-0.043-0.048-0.04-0.097-0.078-0.146-0.115-0.004-0.003-0.008-0.007-0.01-0.008-0.014-0.012-0.027-0.022-0.042-0.033-0.053-0.038-0.106-0.076-0.154-0.108-0.01-0.007-0.021-0.016-0.032-0.022-0.047-0.032-0.095-0.063-0.143-0.092l-0.025-0.017c-0.005-0.004-0.023-0.016-0.029-0.019-0.008-0.005-0.016-0.01-0.023-0.015-0.052-0.03-0.103-0.06-0.161-0.093-0.018-0.01-0.034-0.02-0.051-0.027-0.048-0.026-0.097-0.052-0.146-0.076-0.009-0.004-0.027-0.014-0.036-0.018l-0.033-0.016c-0.049-0.024-0.102-0.048-0.156-0.071-0.028-0.014-0.056-0.025-0.094-0.041l-0.196-0.077c-0.017-0.006-0.033-0.012-0.05-0.018l-0.207-0.068c-0.011-0.004-0.022-0.008-0.034-0.011l-0.047-0.013c-0.012-0.004-0.023-0.007-0.036-0.011l-0.131-0.035c-0.01-0.003-0.019-0.005-0.028-0.007-0.022-0.006-0.046-0.011-0.068-0.016-0.054-0.013-0.107-0.024-0.162-0.035-0.021-0.005-0.042-0.009-0.063-0.013-0.012-0.002-0.023-0.004-0.034-0.006l-0.032-0.006c-0.041-0.007-0.083-0.014-0.125-0.02-0.024-0.004-0.049-0.007-0.071-0.01-0.052-0.007-0.104-0.013-0.156-0.019-0.019-0.002-0.037-0.004-0.053-0.006l-55.268-4.977c-0.152-0.015-0.307-0.021-0.459-0.021-1.717 0-3.306 0.856-4.251 2.291l-8.45 12.815-10.083-1.81c-0.3-0.054-0.604-0.081-0.906-0.081-2.465 0-4.571 1.765-5.009 4.195-0.24 1.339 0.056 2.692 0.833 3.809 0.776 1.117 1.942 1.865 3.281 2.104l13.39 2.404c0.297 0.053 0.6 0.079 0.899 0.079 1.717 0 3.307-0.855 4.253-2.29l5.506-8.352h55.826C89.035 76.348 89.085 76.346 89.136 76.344zM32.542 74.055c-0.386 0-0.745 0.193-0.957 0.516l-5.846 8.867c-0.521 0.788-1.396 1.259-2.339 1.259-0.166 0-0.333-0.015-0.496-0.043L9.517 82.25c-0.736-0.133-1.378-0.543-1.805-1.157-0.428-0.614-0.59-1.358-0.458-2.095 0.24-1.338 1.397-2.308 2.752-2.308 0.166 0 0.334 0.015 0.501 0.045l10.826 1.943c0.452 0.08 0.907-0.115 1.16-0.497l8.866-13.447c0.566-0.859 1.56-1.342 2.59-1.248l55.234 4.974c0.007 0.001 0.012 0.002 0.017 0.002 0.014 0.002 0.026 0.003 0.04 0.005 0.021 0.002 0.042 0.004 0.068 0.007l0.057 0.008c0.009 0.001 0.018 0.002 0.023 0.003l0.108 0.019c0.009 0.002 0.018 0.004 0.027 0.006 0.024 0.005 0.048 0.011 0.071 0.017 0.012 0.002 0.023 0.005 0.034 0.007l0.104 0.027c0.016 0.005 0.033 0.01 0.055 0.016l0.315 0.119c0.022 0.01 0.044 0.019 0.065 0.029 0.004 0.002 0.018 0.009 0.021 0.011l0.021 0.01c0.025 0.013 0.052 0.025 0.078 0.04 0.005 0.003 0.01 0.006 0.015 0.008 0.004 0.003 0.009 0.005 0.014 0.008 0.03 0.018 0.061 0.034 0.09 0.052 0.007 0.004 0.015 0.01 0.018 0.011l0.03 0.02c0.021 0.013 0.043 0.026 0.063 0.04 0.012 0.009 0.025 0.019 0.034 0.024 0.025 0.017 0.05 0.034 0.075 0.052l0.018 0.015c0.006 0.005 0.012 0.01 0.018 0.014 0.025 0.019 0.05 0.038 0.074 0.058 0.009 0.008 0.019 0.016 0.027 0.022-0.009-0.007-0.018-0.015-0.019-0.015 0 0 0.001 0 0.001 0.001 0.008 0.007 0.015 0.013 0.022 0.02 0.023 0.019 0.046 0.038 0.068 0.058 0.017 0.017 0.032 0.031 0.043 0.041 0.022 0.021 0.045 0.042 0.072 0.069l0.027 0.028c0.019 0.02 0.037 0.039 0.054 0.057l0.164 0.197c0.021 0.026 0.039 0.054 0.053 0.073l0.023 0.033c0.001 0 0.001 0.001 0.002 0.001 0.019 0.029 0.038 0.058 0.057 0.088 0.008 0.012 0.016 0.023 0.022 0.035 0.017 0.027 0.032 0.055 0.049 0.083 0.005 0.009 0.015 0.025 0.02 0.034 0.011 0.02 0.021 0.04 0.031 0.061l0.011 0.021c0.008 0.015 0.016 0.03 0.025 0.051l0.031 0.066c0.001 0.003 0.01 0.022 0.012 0.025 0.005 0.014 0.008 0.02 0.014 0.033l0.025 0.064c0.004 0.01 0.018 0.043 0.021 0.053 0.007 0.02 0.014 0.039 0.017 0.047l0.044 0.139c0.007 0.025 0.015 0.052 0.023 0.085 0.004 0.018 0.008 0.035 0.013 0.053 0.005 0.021 0.01 0.042 0.015 0.063l0.002 0.013c0.003 0.016 0.006 0.032 0.009 0.048 0.006 0.027 0.011 0.055 0.016 0.082l0.001 0.006 0.004 0.028c0.004 0.033 0.009 0.066 0.012 0.099 0.001 0.009 0.002 0.018 0.003 0.026 0.001 0.01 0.002 0.019 0.003 0.028 0.003 0.028 0.006 0.058 0.007 0.087 0 0.021 0.001 0.044 0.003 0.065 0.001 0.027 0.001 0.054 0.001 0.081 0 0.009 0.001 0.018 0.001 0.027l-0.001 0.013c0 0.011 0 0.021 0 0.03 0 0.026-0.001 0.053-0.001 0.065l-0.006 0.086c-0.001 0.011-0.002 0.021-0.003 0.031-0.001 0.014-0.003 0.026-0.004 0.039-0.002 0.026-0.005 0.053-0.011 0.094l-0.004 0.031c0 0.004-0.001 0.007-0.001 0.01-0.005 0.032-0.01 0.064-0.017 0.097-0.002 0.015-0.005 0.028-0.007 0.042 0 0.001 0 0.001 0 0.001-0.006 0.03-0.013 0.06-0.021 0.089-0.005 0.02-0.007 0.028-0.011 0.048-0.007 0.029-0.015 0.058-0.023 0.087-0.004 0.013-0.008 0.026-0.012 0.042-0.001 0.003-0.001 0.005-0.002 0.007-0.008 0.025-0.016 0.049-0.024 0.073-0.003 0.008-0.01 0.028-0.012 0.036l-0.055 0.142c-0.002 0.007-0.005 0.013-0.008 0.02l-0.078 0.169c-0.01 0.02-0.02 0.04-0.03 0.06-0.002 0.003-0.004 0.006-0.005 0.009l0 0-0.027 0.048c-0.012 0.021-0.023 0.042-0.04 0.069l-0.021 0.033c-0.015 0.023-0.029 0.048-0.046 0.071-0.002 0.003-0.005 0.007-0.007 0.011-0.008 0.011-0.017 0.022-0.024 0.034-0.017 0.025-0.035 0.05-0.053 0.074-0.005 0.006-0.01 0.012-0.014 0.018-0.003 0.005-0.007 0.009-0.01 0.013-0.016 0.021-0.031 0.043-0.048 0.063-0.005 0.006-0.01 0.012-0.013 0.016-0.008 0.009-0.016 0.018-0.023 0.026-0.016 0.019-0.031 0.038-0.055 0.064-0.004 0.004-0.01 0.01-0.011 0.011-0.011 0.012-0.022 0.023-0.032 0.035-0.02 0.021-0.038 0.041-0.059 0.062-0.001 0.001-0.003 0.003-0.004 0.004l-0.032 0.03c-0.025 0.025-0.051 0.05-0.072 0.068-0.001 0.001-0.014 0.013-0.015 0.013-0.006 0.005-0.012 0.01-0.017 0.015l-0.281 0.219c-0.016 0.011-0.032 0.021-0.057 0.036-0.001 0.001-0.017 0.011-0.018 0.011l-0.146 0.087c-0.019 0.01-0.036 0.019-0.055 0.028-0.013 0.006-0.026 0.014-0.039 0.021l-0.201 0.092c-0.019 0.007-0.036 0.014-0.054 0.021l-0.031 0.012c-0.016 0.005-0.031 0.011-0.047 0.017l-0.093 0.03c-0.014 0.004-0.027 0.008-0.041 0.012-0.022 0.007-0.044 0.014-0.076 0.022-0.012 0.002-0.024 0.006-0.036 0.009l-0.028 0.006c-0.019 0.005-0.036 0.01-0.055 0.014-0.011 0.002-0.021 0.004-0.032 0.006-0.005 0.001-0.009 0.002-0.014 0.003-0.034 0.007-0.068 0.013-0.104 0.019-0.014 0.001-0.028 0.004-0.039 0.005-0.032 0.005-0.065 0.01-0.098 0.013-0.001 0-0.002 0-0.003 0-0.016 0.002-0.032 0.003-0.048 0.005-0.026 0.003-0.054 0.005-0.08 0.006-0.012 0-0.022 0.001-0.033 0.002-0.006 0-0.013 0-0.015 0l-0.033 0.001c-0.023 0.001-0.048 0.002-0.071 0.002H32.542z" fill="#e65728" data-fill-palette-color="accent"></path></g></svg><g></g></g></svg></g><g></g></svg></g></svg></g></svg></g></svg></g></svg><rect width="320" height="360" fill="none" stroke="none" visibility="hidden"></rect></g></svg></g></svg>